<svg xmlns="http://www.w3.org/2000/svg" width="512" height="512" viewBox="0 0 512 512">
<defs>
  <linearGradient id="abg" x1="0" y1="0" x2="1" y2="1">
    <stop offset="0%" stop-color="#04312c"/>
    <stop offset="50%" stop-color="#0f766e"/>
    <stop offset="100%" stop-color="#4338ca"/>
  </linearGradient>
</defs>
<rect width="512" height="512" rx="96" fill="url(#abg)"/>
<line x1="6" y1="0" x2="6" y2="512" stroke="#ffffff" stroke-width="0.7" opacity="0.05"/>
<line x1="0" y1="6" x2="512" y2="6" stroke="#ffffff" stroke-width="0.7" opacity="0.05"/>
<line x1="48" y1="0" x2="48" y2="512" stroke="#ffffff" stroke-width="0.7" opacity="0.05"/>
<line x1="0" y1="48" x2="512" y2="48" stroke="#ffffff" stroke-width="0.7" opacity="0.05"/>
<line x1="90" y1="0" x2="90" y2="512" stroke="#ffffff" stroke-width="0.7" opacity="0.05"/>
<line x1="0" y1="90" x2="512" y2="90" stroke="#ffffff" stroke-width="0.7" opacity="0.05"/>
<line x1="132" y1="0" x2="132" y2="512" stroke="#ffffff" stroke-width="0.7" opacity="0.05"/>
<line x1="0" y1="132" x2="512" y2="132" stroke="#ffffff" stroke-width="0.7" opacity="0.05"/>
<line x1="174" y1="0" x2="174" y2="512" stroke="#ffffff" stroke-width="0.7" opacity="0.05"/>
<line x1="0" y1="174" x2="512" y2="174" stroke="#ffffff" stroke-width="0.7" opacity="0.05"/>
<line x1="216" y1="0" x2="216" y2="512" stroke="#ffffff" stroke-width="0.7" opacity="0.05"/>
<line x1="0" y1="216" x2="512" y2="216" stroke="#ffffff" stroke-width="0.7" opacity="0.05"/>
<line x1="258" y1="0" x2="258" y2="512" stroke="#ffffff" stroke-width="0.7" opacity="0.05"/>
<line x1="0" y1="258" x2="512" y2="258" stroke="#ffffff" stroke-width="0.7" opacity="0.05"/>
<line x1="300" y1="0" x2="300" y2="512" stroke="#ffffff" stroke-width="0.7" opacity="0.05"/>
<line x1="0" y1="300" x2="512" y2="300" stroke="#ffffff" stroke-width="0.7" opacity="0.05"/>
<line x1="342" y1="0" x2="342" y2="512" stroke="#ffffff" stroke-width="0.7" opacity="0.05"/>
<line x1="0" y1="342" x2="512" y2="342" stroke="#ffffff" stroke-width="0.7" opacity="0.05"/>
<line x1="384" y1="0" x2="384" y2="512" stroke="#ffffff" stroke-width="0.7" opacity="0.05"/>
<line x1="0" y1="384" x2="512" y2="384" stroke="#ffffff" stroke-width="0.7" opacity="0.05"/>
<line x1="426" y1="0" x2="426" y2="512" stroke="#ffffff" stroke-width="0.7" opacity="0.05"/>
<line x1="0" y1="426" x2="512" y2="426" stroke="#ffffff" stroke-width="0.7" opacity="0.05"/>
<line x1="468" y1="0" x2="468" y2="512" stroke="#ffffff" stroke-width="0.7" opacity="0.05"/>
<line x1="0" y1="468" x2="512" y2="468" stroke="#ffffff" stroke-width="0.7" opacity="0.05"/>
<line x1="510" y1="0" x2="510" y2="512" stroke="#ffffff" stroke-width="0.7" opacity="0.05"/>
<line x1="0" y1="510" x2="512" y2="510" stroke="#ffffff" stroke-width="0.7" opacity="0.05"/>
  <path d="M 238 86 A 140 140 0 0 0 238 366" fill="none" stroke="#34d399" stroke-width="5.0" stroke-linecap="round" opacity="0.95"/>
  <path d="M 238 86 A 140 140 0 0 1 238 366" fill="none" stroke="#22d3ee" stroke-width="3.8" stroke-linecap="round" stroke-dasharray="9 7" opacity="0.9"/>
  <circle cx="238.0" cy="375.4" r="3.2" fill="#34d399" opacity="0.75"/>
  <circle cx="204.7" cy="371.7" r="3.2" fill="#34d399" opacity="0.75"/>
  <circle cx="173.2" cy="360.6" r="3.2" fill="#34d399" opacity="0.75"/>
  <circle cx="144.8" cy="342.8" r="3.2" fill="#34d399" opacity="0.75"/>
  <circle cx="121.2" cy="319.2" r="3.2" fill="#34d399" opacity="0.75"/>
  <circle cx="103.4" cy="290.8" r="3.2" fill="#34d399" opacity="0.75"/>
  <circle cx="92.3" cy="259.3" r="3.2" fill="#34d399" opacity="0.75"/>
  <circle cx="88.6" cy="226.0" r="3.2" fill="#34d399" opacity="0.75"/>
  <circle cx="92.3" cy="192.7" r="3.2" fill="#34d399" opacity="0.75"/>
  <circle cx="103.4" cy="161.2" r="3.2" fill="#34d399" opacity="0.75"/>
  <circle cx="121.2" cy="132.8" r="3.2" fill="#34d399" opacity="0.75"/>
  <circle cx="144.8" cy="109.2" r="3.2" fill="#34d399" opacity="0.75"/>
  <circle cx="173.2" cy="91.4" r="3.2" fill="#34d399" opacity="0.75"/>
  <circle cx="204.7" cy="80.3" r="3.2" fill="#34d399" opacity="0.75"/>
  <circle cx="238.0" cy="76.6" r="3.2" fill="#34d399" opacity="0.75"/>
  <circle cx="238" cy="226" r="135.8" fill="#ffffff" opacity="0.05"/>
  <polyline points="186.2,149.0 193.6,151.6 200.8,154.1 207.6,156.7 213.6,159.3 218.8,161.8 223.0,164.4 226.0,167.0 227.7,169.5 228.2,172.1 227.3,174.7 225.1,177.2 221.7,179.8 217.1,182.4 211.6,184.9 205.3,187.5 198.3,190.1 191.0,192.6 183.6,195.2 176.2,197.8 169.1,200.3 162.6,202.9 156.8,205.5 152.0,208.0 148.2,210.6 145.6,213.2 144.3,215.7 144.4,218.3 145.7,220.9 148.4,223.4 152.2,226.0 157.1,228.6 163.0,231.1 169.5,233.7 176.6,236.3 184.0,238.8 191.5,241.4 198.8,244.0 205.7,246.5 211.9,249.1 217.4,251.7 221.9,254.2 225.3,256.8 227.4,259.4 228.2,261.9 227.7,264.5 225.9,267.1 222.8,269.6 218.6,272.2 213.3,274.8 207.2,277.3 200.4,279.9 193.2,282.5 185.8,285.0 178.3,287.6 171.1,290.2 164.4,292.7 158.4,295.3 153.3,297.9 149.2,300.4 146.3,303.0" fill="none" stroke="#34d399" stroke-width="3.2" stroke-linecap="round" opacity="0.9"/>
  <polyline points="186.2,149.0 178.8,151.6 171.6,154.1 164.8,156.7 158.8,159.3 153.6,161.8 149.4,164.4 146.4,167.0 144.7,169.5 144.2,172.1 145.1,174.7 147.3,177.2 150.7,179.8 155.3,182.4 160.8,184.9 167.1,187.5 174.1,190.1 181.4,192.6 188.8,195.2 196.2,197.8 203.3,200.3 209.8,202.9 215.6,205.5 220.4,208.0 224.2,210.6 226.8,213.2 228.1,215.7 228.0,218.3 226.7,220.9 224.0,223.4 220.2,226.0 215.3,228.6 209.4,231.1 202.9,233.7 195.8,236.3 188.4,238.8 180.9,241.4 173.6,244.0 166.7,246.5 160.5,249.1 155.0,251.7 150.5,254.2 147.1,256.8 145.0,259.4 144.2,261.9 144.7,264.5 146.5,267.1 149.6,269.6 153.8,272.2 159.1,274.8 165.2,277.3 172.0,279.9 179.2,282.5 186.6,285.0 194.1,287.6 201.3,290.2 208.0,292.7 214.0,295.3 219.1,297.9 223.2,300.4 226.1,303.0" fill="none" stroke="#a7f3d0" stroke-width="3.2" stroke-linecap="round" opacity="0.9"/>
  <line x1="209.7" y1="157.6" x2="162.7" y2="157.6" stroke="#ffffff" stroke-width="1.9" opacity="0.45"/>
  <line x1="227.3" y1="174.7" x2="145.1" y2="174.7" stroke="#ffffff" stroke-width="1.9" opacity="0.45"/>
  <line x1="193.5" y1="191.8" x2="178.9" y2="191.8" stroke="#ffffff" stroke-width="1.9" opacity="0.45"/>
  <line x1="150.6" y1="208.9" x2="221.8" y2="208.9" stroke="#ffffff" stroke-width="1.9" opacity="0.45"/>
  <line x1="152.2" y1="226.0" x2="220.2" y2="226.0" stroke="#ffffff" stroke-width="1.9" opacity="0.45"/>
  <line x1="196.4" y1="243.1" x2="176.0" y2="243.1" stroke="#ffffff" stroke-width="1.9" opacity="0.45"/>
  <line x1="227.8" y1="260.2" x2="144.6" y2="260.2" stroke="#ffffff" stroke-width="1.9" opacity="0.45"/>
  <line x1="207.2" y1="277.3" x2="165.2" y2="277.3" stroke="#ffffff" stroke-width="1.9" opacity="0.45"/>
  <line x1="160.3" y1="294.4" x2="212.1" y2="294.4" stroke="#ffffff" stroke-width="1.9" opacity="0.45"/>
  <line x1="280.0" y1="144.8" x2="324.8" y2="175.6" stroke="#22d3ee" stroke-width="1.6" opacity="0.55"/>
  <line x1="280.0" y1="144.8" x2="266.0" y2="198.0" stroke="#22d3ee" stroke-width="1.6" opacity="0.55"/>
  <line x1="280.0" y1="144.8" x2="299.6" y2="133.6" stroke="#22d3ee" stroke-width="1.6" opacity="0.55"/>
  <line x1="324.8" y1="175.6" x2="266.0" y2="198.0" stroke="#22d3ee" stroke-width="1.6" opacity="0.55"/>
  <line x1="324.8" y1="175.6" x2="310.8" y2="223.2" stroke="#22d3ee" stroke-width="1.6" opacity="0.55"/>
  <line x1="324.8" y1="175.6" x2="341.6" y2="228.8" stroke="#22d3ee" stroke-width="1.6" opacity="0.55"/>
  <line x1="324.8" y1="175.6" x2="299.6" y2="133.6" stroke="#22d3ee" stroke-width="1.6" opacity="0.55"/>
  <line x1="266.0" y1="198.0" x2="310.8" y2="223.2" stroke="#22d3ee" stroke-width="1.6" opacity="0.55"/>
  <line x1="266.0" y1="198.0" x2="277.2" y2="256.8" stroke="#22d3ee" stroke-width="1.6" opacity="0.55"/>
  <line x1="310.8" y1="223.2" x2="277.2" y2="256.8" stroke="#22d3ee" stroke-width="1.6" opacity="0.55"/>
  <line x1="310.8" y1="223.2" x2="327.6" y2="268.0" stroke="#22d3ee" stroke-width="1.6" opacity="0.55"/>
  <line x1="310.8" y1="223.2" x2="341.6" y2="228.8" stroke="#22d3ee" stroke-width="1.6" opacity="0.55"/>
  <line x1="277.2" y1="256.8" x2="327.6" y2="268.0" stroke="#22d3ee" stroke-width="1.6" opacity="0.55"/>
  <line x1="277.2" y1="256.8" x2="268.8" y2="298.8" stroke="#22d3ee" stroke-width="1.6" opacity="0.55"/>
  <line x1="277.2" y1="256.8" x2="299.6" y2="310.0" stroke="#22d3ee" stroke-width="1.6" opacity="0.55"/>
  <line x1="327.6" y1="268.0" x2="299.6" y2="310.0" stroke="#22d3ee" stroke-width="1.6" opacity="0.55"/>
  <line x1="327.6" y1="268.0" x2="341.6" y2="228.8" stroke="#22d3ee" stroke-width="1.6" opacity="0.55"/>
  <line x1="268.8" y1="298.8" x2="299.6" y2="310.0" stroke="#22d3ee" stroke-width="1.6" opacity="0.55"/>
  <circle cx="280.0" cy="144.8" r="5.5" fill="#a78bfa" opacity="0.98"/>
  <circle cx="280.0" cy="144.8" r="10.5" fill="none" stroke="#a78bfa" stroke-width="1.1" opacity="0.40"/>
  <circle cx="324.8" cy="175.6" r="5.5" fill="#22d3ee" opacity="0.98"/>
  <circle cx="324.8" cy="175.6" r="10.5" fill="none" stroke="#22d3ee" stroke-width="1.1" opacity="0.40"/>
  <circle cx="266.0" cy="198.0" r="5.5" fill="#22d3ee" opacity="0.98"/>
  <circle cx="266.0" cy="198.0" r="10.5" fill="none" stroke="#22d3ee" stroke-width="1.1" opacity="0.40"/>
  <circle cx="310.8" cy="223.2" r="5.5" fill="#a78bfa" opacity="0.98"/>
  <circle cx="310.8" cy="223.2" r="10.5" fill="none" stroke="#a78bfa" stroke-width="1.1" opacity="0.40"/>
  <circle cx="277.2" cy="256.8" r="5.5" fill="#22d3ee" opacity="0.98"/>
  <circle cx="277.2" cy="256.8" r="10.5" fill="none" stroke="#22d3ee" stroke-width="1.1" opacity="0.40"/>
  <circle cx="327.6" cy="268.0" r="5.5" fill="#22d3ee" opacity="0.98"/>
  <circle cx="327.6" cy="268.0" r="10.5" fill="none" stroke="#22d3ee" stroke-width="1.1" opacity="0.40"/>
  <circle cx="268.8" cy="298.8" r="5.5" fill="#a78bfa" opacity="0.98"/>
  <circle cx="268.8" cy="298.8" r="10.5" fill="none" stroke="#a78bfa" stroke-width="1.1" opacity="0.40"/>
  <circle cx="299.6" cy="310.0" r="5.5" fill="#22d3ee" opacity="0.98"/>
  <circle cx="299.6" cy="310.0" r="10.5" fill="none" stroke="#22d3ee" stroke-width="1.1" opacity="0.40"/>
  <circle cx="341.6" cy="228.8" r="5.5" fill="#22d3ee" opacity="0.98"/>
  <circle cx="341.6" cy="228.8" r="10.5" fill="none" stroke="#22d3ee" stroke-width="1.1" opacity="0.40"/>
  <circle cx="299.6" cy="133.6" r="5.5" fill="#a78bfa" opacity="0.98"/>
  <circle cx="299.6" cy="133.6" r="10.5" fill="none" stroke="#a78bfa" stroke-width="1.1" opacity="0.40"/>
  <rect x="358.4" y="178.2" width="11.6" height="11.6" rx="2.5" fill="#22d3ee" opacity="0.80"/>
  <rect x="376.2" y="245.8" width="10.8" height="10.8" rx="2.4" fill="#a78bfa" opacity="0.72"/>
  <rect x="394.1" y="204.2" width="10.0" height="10.0" rx="2.2" fill="#22d3ee" opacity="0.64"/>
  <rect x="411.9" y="280.2" width="9.2" height="9.2" rx="2.0" fill="#a78bfa" opacity="0.56"/>
  <rect x="429.8" y="219.0" width="8.4" height="8.4" rx="1.8" fill="#22d3ee" opacity="0.48"/>
  <rect x="447.6" y="264.2" width="7.6" height="7.6" rx="1.7" fill="#a78bfa" opacity="0.40"/>
  <rect x="465.5" y="189.0" width="6.8" height="6.8" rx="1.5" fill="#22d3ee" opacity="0.32"/>
  <rect x="483.4" y="237.0" width="6.0" height="6.0" rx="1.3" fill="#a78bfa" opacity="0.24"/>
  <rect x="501.2" y="273.8" width="5.2" height="5.2" rx="1.2" fill="#22d3ee" opacity="0.16"/>
<text x="256" y="452" font-family="Helvetica,Arial,sans-serif" font-size="72" font-weight="bold" fill="#ffffff" text-anchor="middle" letter-spacing="6">CASB</text>
</svg>