<svg xmlns="http://www.w3.org/2000/svg" width="1600" height="400" viewBox="0 0 1600 400">
<defs>
  <linearGradient id="bg" x1="0" y1="0" x2="1" y2="1">
    <stop offset="0%" stop-color="#04312c"/>
    <stop offset="45%" stop-color="#0f766e"/>
    <stop offset="100%" stop-color="#3f3aa8"/>
  </linearGradient>
  <linearGradient id="rule" x1="0" y1="0" x2="1" y2="0">
    <stop offset="0%" stop-color="#34d399"/>
    <stop offset="100%" stop-color="#a78bfa" stop-opacity="0.1"/>
  </linearGradient>
</defs>
<rect width="1600" height="400" fill="url(#bg)"/>
<polygon points="705.0,-26.1 690.0,-0.1 660.0,-0.1 645.0,-26.1 660.0,-52.1 690.0,-52.1" fill="none" stroke="#ffffff" stroke-width="0.8" opacity="0.001"/>
<polygon points="750.0,-52.2 735.0,-26.2 705.0,-26.2 690.0,-52.2 705.0,-78.2 735.0,-78.2" fill="none" stroke="#ffffff" stroke-width="0.8" opacity="0.009"/>
<polygon points="795.0,-26.1 780.0,-0.1 750.0,-0.1 735.0,-26.1 750.0,-52.1 780.0,-52.1" fill="none" stroke="#ffffff" stroke-width="0.8" opacity="0.017"/>
<polygon points="840.0,-52.2 825.0,-26.2 795.0,-26.2 780.0,-52.2 795.0,-78.2 825.0,-78.2" fill="none" stroke="#ffffff" stroke-width="0.8" opacity="0.026"/>
<polygon points="885.0,-26.1 870.0,-0.1 840.0,-0.1 825.0,-26.1 840.0,-52.1 870.0,-52.1" fill="none" stroke="#ffffff" stroke-width="0.8" opacity="0.034"/>
<polygon points="930.0,-52.2 915.0,-26.2 885.0,-26.2 870.0,-52.2 885.0,-78.2 915.0,-78.2" fill="none" stroke="#ffffff" stroke-width="0.8" opacity="0.043"/>
<polygon points="975.0,-26.1 960.0,-0.1 930.0,-0.1 915.0,-26.1 930.0,-52.1 960.0,-52.1" fill="none" stroke="#ffffff" stroke-width="0.8" opacity="0.051"/>
<polygon points="1020.0,-52.2 1005.0,-26.2 975.0,-26.2 960.0,-52.2 975.0,-78.2 1005.0,-78.2" fill="none" stroke="#ffffff" stroke-width="0.8" opacity="0.060"/>
<polygon points="1065.0,-26.1 1050.0,-0.1 1020.0,-0.1 1005.0,-26.1 1020.0,-52.1 1050.0,-52.1" fill="none" stroke="#ffffff" stroke-width="0.8" opacity="0.068"/>
<polygon points="1110.0,-52.2 1095.0,-26.2 1065.0,-26.2 1050.0,-52.2 1065.0,-78.2 1095.0,-78.2" fill="none" stroke="#ffffff" stroke-width="0.8" opacity="0.077"/>
<polygon points="1155.0,-26.1 1140.0,-0.1 1110.0,-0.1 1095.0,-26.1 1110.0,-52.1 1140.0,-52.1" fill="none" stroke="#ffffff" stroke-width="0.8" opacity="0.085"/>
<polygon points="1200.0,-52.2 1185.0,-26.2 1155.0,-26.2 1140.0,-52.2 1155.0,-78.2 1185.0,-78.2" fill="none" stroke="#ffffff" stroke-width="0.8" opacity="0.093"/>
<polygon points="1245.0,-26.1 1230.0,-0.1 1200.0,-0.1 1185.0,-26.1 1200.0,-52.1 1230.0,-52.1" fill="none" stroke="#ffffff" stroke-width="0.8" opacity="0.102"/>
<polygon points="1290.0,-52.2 1275.0,-26.2 1245.0,-26.2 1230.0,-52.2 1245.0,-78.2 1275.0,-78.2" fill="none" stroke="#ffffff" stroke-width="0.8" opacity="0.110"/>
<polygon points="1335.0,-26.1 1320.0,-0.1 1290.0,-0.1 1275.0,-26.1 1290.0,-52.1 1320.0,-52.1" fill="none" stroke="#ffffff" stroke-width="0.8" opacity="0.119"/>
<polygon points="1380.0,-52.2 1365.0,-26.2 1335.0,-26.2 1320.0,-52.2 1335.0,-78.2 1365.0,-78.2" fill="none" stroke="#ffffff" stroke-width="0.8" opacity="0.127"/>
<polygon points="1425.0,-26.1 1410.0,-0.1 1380.0,-0.1 1365.0,-26.1 1380.0,-52.1 1410.0,-52.1" fill="none" stroke="#ffffff" stroke-width="0.8" opacity="0.136"/>
<polygon points="1470.0,-52.2 1455.0,-26.2 1425.0,-26.2 1410.0,-52.2 1425.0,-78.2 1455.0,-78.2" fill="none" stroke="#ffffff" stroke-width="0.8" opacity="0.144"/>
<polygon points="1515.0,-26.1 1500.0,-0.1 1470.0,-0.1 1455.0,-26.1 1470.0,-52.1 1500.0,-52.1" fill="none" stroke="#ffffff" stroke-width="0.8" opacity="0.152"/>
<polygon points="1560.0,-52.2 1545.0,-26.2 1515.0,-26.2 1500.0,-52.2 1515.0,-78.2 1545.0,-78.2" fill="none" stroke="#ffffff" stroke-width="0.8" opacity="0.160"/>
<polygon points="1605.0,-26.1 1590.0,-0.1 1560.0,-0.1 1545.0,-26.1 1560.0,-52.1 1590.0,-52.1" fill="none" stroke="#ffffff" stroke-width="0.8" opacity="0.160"/>
<polygon points="1650.0,-52.2 1635.0,-26.2 1605.0,-26.2 1590.0,-52.2 1605.0,-78.2 1635.0,-78.2" fill="none" stroke="#ffffff" stroke-width="0.8" opacity="0.160"/>
<polygon points="705.0,26.1 690.0,52.1 660.0,52.1 645.0,26.1 660.0,0.1 690.0,0.1" fill="none" stroke="#ffffff" stroke-width="0.8" opacity="0.001"/>
<polygon points="750.0,0.0 735.0,26.0 705.0,26.0 690.0,0.0 705.0,-26.0 735.0,-26.0" fill="none" stroke="#ffffff" stroke-width="0.8" opacity="0.009"/>
<polygon points="795.0,26.1 780.0,52.1 750.0,52.1 735.0,26.1 750.0,0.1 780.0,0.1" fill="none" stroke="#ffffff" stroke-width="0.8" opacity="0.017"/>
<polygon points="840.0,0.0 825.0,26.0 795.0,26.0 780.0,0.0 795.0,-26.0 825.0,-26.0" fill="none" stroke="#ffffff" stroke-width="0.8" opacity="0.026"/>
<polygon points="885.0,26.1 870.0,52.1 840.0,52.1 825.0,26.1 840.0,0.1 870.0,0.1" fill="none" stroke="#ffffff" stroke-width="0.8" opacity="0.034"/>
<polygon points="930.0,0.0 915.0,26.0 885.0,26.0 870.0,0.0 885.0,-26.0 915.0,-26.0" fill="none" stroke="#ffffff" stroke-width="0.8" opacity="0.043"/>
<polygon points="975.0,26.1 960.0,52.1 930.0,52.1 915.0,26.1 930.0,0.1 960.0,0.1" fill="none" stroke="#ffffff" stroke-width="0.8" opacity="0.051"/>
<polygon points="1020.0,0.0 1005.0,26.0 975.0,26.0 960.0,0.0 975.0,-26.0 1005.0,-26.0" fill="none" stroke="#ffffff" stroke-width="0.8" opacity="0.060"/>
<polygon points="1065.0,26.1 1050.0,52.1 1020.0,52.1 1005.0,26.1 1020.0,0.1 1050.0,0.1" fill="none" stroke="#ffffff" stroke-width="0.8" opacity="0.068"/>
<polygon points="1110.0,0.0 1095.0,26.0 1065.0,26.0 1050.0,0.0 1065.0,-26.0 1095.0,-26.0" fill="none" stroke="#ffffff" stroke-width="0.8" opacity="0.077"/>
<polygon points="1155.0,26.1 1140.0,52.1 1110.0,52.1 1095.0,26.1 1110.0,0.1 1140.0,0.1" fill="none" stroke="#ffffff" stroke-width="0.8" opacity="0.085"/>
<polygon points="1200.0,0.0 1185.0,26.0 1155.0,26.0 1140.0,0.0 1155.0,-26.0 1185.0,-26.0" fill="none" stroke="#ffffff" stroke-width="0.8" opacity="0.093"/>
<polygon points="1245.0,26.1 1230.0,52.1 1200.0,52.1 1185.0,26.1 1200.0,0.1 1230.0,0.1" fill="none" stroke="#ffffff" stroke-width="0.8" opacity="0.102"/>
<polygon points="1290.0,0.0 1275.0,26.0 1245.0,26.0 1230.0,0.0 1245.0,-26.0 1275.0,-26.0" fill="none" stroke="#ffffff" stroke-width="0.8" opacity="0.110"/>
<polygon points="1335.0,26.1 1320.0,52.1 1290.0,52.1 1275.0,26.1 1290.0,0.1 1320.0,0.1" fill="none" stroke="#ffffff" stroke-width="0.8" opacity="0.119"/>
<polygon points="1380.0,0.0 1365.0,26.0 1335.0,26.0 1320.0,0.0 1335.0,-26.0 1365.0,-26.0" fill="none" stroke="#ffffff" stroke-width="0.8" opacity="0.127"/>
<polygon points="1425.0,26.1 1410.0,52.1 1380.0,52.1 1365.0,26.1 1380.0,0.1 1410.0,0.1" fill="none" stroke="#ffffff" stroke-width="0.8" opacity="0.136"/>
<polygon points="1470.0,0.0 1455.0,26.0 1425.0,26.0 1410.0,0.0 1425.0,-26.0 1455.0,-26.0" fill="none" stroke="#ffffff" stroke-width="0.8" opacity="0.144"/>
<polygon points="1515.0,26.1 1500.0,52.1 1470.0,52.1 1455.0,26.1 1470.0,0.1 1500.0,0.1" fill="none" stroke="#ffffff" stroke-width="0.8" opacity="0.152"/>
<polygon points="1560.0,0.0 1545.0,26.0 1515.0,26.0 1500.0,0.0 1515.0,-26.0 1545.0,-26.0" fill="none" stroke="#ffffff" stroke-width="0.8" opacity="0.160"/>
<polygon points="1605.0,26.1 1590.0,52.1 1560.0,52.1 1545.0,26.1 1560.0,0.1 1590.0,0.1" fill="none" stroke="#ffffff" stroke-width="0.8" opacity="0.160"/>
<polygon points="1650.0,0.0 1635.0,26.0 1605.0,26.0 1590.0,0.0 1605.0,-26.0 1635.0,-26.0" fill="none" stroke="#ffffff" stroke-width="0.8" opacity="0.160"/>
<polygon points="705.0,78.3 690.0,104.3 660.0,104.3 645.0,78.3 660.0,52.3 690.0,52.3" fill="none" stroke="#ffffff" stroke-width="0.8" opacity="0.001"/>
<polygon points="750.0,52.2 735.0,78.2 705.0,78.2 690.0,52.2 705.0,26.2 735.0,26.2" fill="none" stroke="#ffffff" stroke-width="0.8" opacity="0.009"/>
<polygon points="795.0,78.3 780.0,104.3 750.0,104.3 735.0,78.3 750.0,52.3 780.0,52.3" fill="none" stroke="#ffffff" stroke-width="0.8" opacity="0.017"/>
<polygon points="840.0,52.2 825.0,78.2 795.0,78.2 780.0,52.2 795.0,26.2 825.0,26.2" fill="none" stroke="#ffffff" stroke-width="0.8" opacity="0.026"/>
<polygon points="885.0,78.3 870.0,104.3 840.0,104.3 825.0,78.3 840.0,52.3 870.0,52.3" fill="none" stroke="#ffffff" stroke-width="0.8" opacity="0.034"/>
<polygon points="930.0,52.2 915.0,78.2 885.0,78.2 870.0,52.2 885.0,26.2 915.0,26.2" fill="none" stroke="#ffffff" stroke-width="0.8" opacity="0.043"/>
<polygon points="975.0,78.3 960.0,104.3 930.0,104.3 915.0,78.3 930.0,52.3 960.0,52.3" fill="none" stroke="#ffffff" stroke-width="0.8" opacity="0.051"/>
<polygon points="1020.0,52.2 1005.0,78.2 975.0,78.2 960.0,52.2 975.0,26.2 1005.0,26.2" fill="none" stroke="#ffffff" stroke-width="0.8" opacity="0.060"/>
<polygon points="1065.0,78.3 1050.0,104.3 1020.0,104.3 1005.0,78.3 1020.0,52.3 1050.0,52.3" fill="none" stroke="#ffffff" stroke-width="0.8" opacity="0.068"/>
<polygon points="1110.0,52.2 1095.0,78.2 1065.0,78.2 1050.0,52.2 1065.0,26.2 1095.0,26.2" fill="none" stroke="#ffffff" stroke-width="0.8" opacity="0.077"/>
<polygon points="1155.0,78.3 1140.0,104.3 1110.0,104.3 1095.0,78.3 1110.0,52.3 1140.0,52.3" fill="none" stroke="#ffffff" stroke-width="0.8" opacity="0.085"/>
<polygon points="1200.0,52.2 1185.0,78.2 1155.0,78.2 1140.0,52.2 1155.0,26.2 1185.0,26.2" fill="none" stroke="#ffffff" stroke-width="0.8" opacity="0.093"/>
<polygon points="1245.0,78.3 1230.0,104.3 1200.0,104.3 1185.0,78.3 1200.0,52.3 1230.0,52.3" fill="none" stroke="#ffffff" stroke-width="0.8" opacity="0.102"/>
<polygon points="1290.0,52.2 1275.0,78.2 1245.0,78.2 1230.0,52.2 1245.0,26.2 1275.0,26.2" fill="none" stroke="#ffffff" stroke-width="0.8" opacity="0.110"/>
<polygon points="1335.0,78.3 1320.0,104.3 1290.0,104.3 1275.0,78.3 1290.0,52.3 1320.0,52.3" fill="none" stroke="#ffffff" stroke-width="0.8" opacity="0.119"/>
<polygon points="1380.0,52.2 1365.0,78.2 1335.0,78.2 1320.0,52.2 1335.0,26.2 1365.0,26.2" fill="none" stroke="#ffffff" stroke-width="0.8" opacity="0.127"/>
<polygon points="1425.0,78.3 1410.0,104.3 1380.0,104.3 1365.0,78.3 1380.0,52.3 1410.0,52.3" fill="none" stroke="#ffffff" stroke-width="0.8" opacity="0.136"/>
<polygon points="1470.0,52.2 1455.0,78.2 1425.0,78.2 1410.0,52.2 1425.0,26.2 1455.0,26.2" fill="none" stroke="#ffffff" stroke-width="0.8" opacity="0.144"/>
<polygon points="1515.0,78.3 1500.0,104.3 1470.0,104.3 1455.0,78.3 1470.0,52.3 1500.0,52.3" fill="none" stroke="#ffffff" stroke-width="0.8" opacity="0.152"/>
<polygon points="1560.0,52.2 1545.0,78.2 1515.0,78.2 1500.0,52.2 1515.0,26.2 1545.0,26.2" fill="none" stroke="#ffffff" stroke-width="0.8" opacity="0.160"/>
<polygon points="1605.0,78.3 1590.0,104.3 1560.0,104.3 1545.0,78.3 1560.0,52.3 1590.0,52.3" fill="none" stroke="#ffffff" stroke-width="0.8" opacity="0.160"/>
<polygon points="1650.0,52.2 1635.0,78.2 1605.0,78.2 1590.0,52.2 1605.0,26.2 1635.0,26.2" fill="none" stroke="#ffffff" stroke-width="0.8" opacity="0.160"/>
<polygon points="705.0,130.5 690.0,156.5 660.0,156.5 645.0,130.5 660.0,104.5 690.0,104.5" fill="none" stroke="#ffffff" stroke-width="0.8" opacity="0.001"/>
<polygon points="750.0,104.4 735.0,130.4 705.0,130.4 690.0,104.4 705.0,78.4 735.0,78.4" fill="none" stroke="#ffffff" stroke-width="0.8" opacity="0.009"/>
<polygon points="795.0,130.5 780.0,156.5 750.0,156.5 735.0,130.5 750.0,104.5 780.0,104.5" fill="none" stroke="#ffffff" stroke-width="0.8" opacity="0.017"/>
<polygon points="840.0,104.4 825.0,130.4 795.0,130.4 780.0,104.4 795.0,78.4 825.0,78.4" fill="none" stroke="#ffffff" stroke-width="0.8" opacity="0.026"/>
<polygon points="885.0,130.5 870.0,156.5 840.0,156.5 825.0,130.5 840.0,104.5 870.0,104.5" fill="none" stroke="#ffffff" stroke-width="0.8" opacity="0.034"/>
<polygon points="930.0,104.4 915.0,130.4 885.0,130.4 870.0,104.4 885.0,78.4 915.0,78.4" fill="none" stroke="#ffffff" stroke-width="0.8" opacity="0.043"/>
<polygon points="975.0,130.5 960.0,156.5 930.0,156.5 915.0,130.5 930.0,104.5 960.0,104.5" fill="none" stroke="#ffffff" stroke-width="0.8" opacity="0.051"/>
<polygon points="1020.0,104.4 1005.0,130.4 975.0,130.4 960.0,104.4 975.0,78.4 1005.0,78.4" fill="none" stroke="#ffffff" stroke-width="0.8" opacity="0.060"/>
<polygon points="1065.0,130.5 1050.0,156.5 1020.0,156.5 1005.0,130.5 1020.0,104.5 1050.0,104.5" fill="none" stroke="#ffffff" stroke-width="0.8" opacity="0.068"/>
<polygon points="1110.0,104.4 1095.0,130.4 1065.0,130.4 1050.0,104.4 1065.0,78.4 1095.0,78.4" fill="none" stroke="#ffffff" stroke-width="0.8" opacity="0.077"/>
<polygon points="1155.0,130.5 1140.0,156.5 1110.0,156.5 1095.0,130.5 1110.0,104.5 1140.0,104.5" fill="none" stroke="#ffffff" stroke-width="0.8" opacity="0.085"/>
<polygon points="1200.0,104.4 1185.0,130.4 1155.0,130.4 1140.0,104.4 1155.0,78.4 1185.0,78.4" fill="none" stroke="#ffffff" stroke-width="0.8" opacity="0.093"/>
<polygon points="1245.0,130.5 1230.0,156.5 1200.0,156.5 1185.0,130.5 1200.0,104.5 1230.0,104.5" fill="none" stroke="#ffffff" stroke-width="0.8" opacity="0.102"/>
<polygon points="1290.0,104.4 1275.0,130.4 1245.0,130.4 1230.0,104.4 1245.0,78.4 1275.0,78.4" fill="none" stroke="#ffffff" stroke-width="0.8" opacity="0.110"/>
<polygon points="1335.0,130.5 1320.0,156.5 1290.0,156.5 1275.0,130.5 1290.0,104.5 1320.0,104.5" fill="none" stroke="#ffffff" stroke-width="0.8" opacity="0.119"/>
<polygon points="1380.0,104.4 1365.0,130.4 1335.0,130.4 1320.0,104.4 1335.0,78.4 1365.0,78.4" fill="none" stroke="#ffffff" stroke-width="0.8" opacity="0.127"/>
<polygon points="1425.0,130.5 1410.0,156.5 1380.0,156.5 1365.0,130.5 1380.0,104.5 1410.0,104.5" fill="none" stroke="#ffffff" stroke-width="0.8" opacity="0.136"/>
<polygon points="1470.0,104.4 1455.0,130.4 1425.0,130.4 1410.0,104.4 1425.0,78.4 1455.0,78.4" fill="none" stroke="#ffffff" stroke-width="0.8" opacity="0.144"/>
<polygon points="1515.0,130.5 1500.0,156.5 1470.0,156.5 1455.0,130.5 1470.0,104.5 1500.0,104.5" fill="none" stroke="#ffffff" stroke-width="0.8" opacity="0.152"/>
<polygon points="1560.0,104.4 1545.0,130.4 1515.0,130.4 1500.0,104.4 1515.0,78.4 1545.0,78.4" fill="none" stroke="#ffffff" stroke-width="0.8" opacity="0.160"/>
<polygon points="1605.0,130.5 1590.0,156.5 1560.0,156.5 1545.0,130.5 1560.0,104.5 1590.0,104.5" fill="none" stroke="#ffffff" stroke-width="0.8" opacity="0.160"/>
<polygon points="1650.0,104.4 1635.0,130.4 1605.0,130.4 1590.0,104.4 1605.0,78.4 1635.0,78.4" fill="none" stroke="#ffffff" stroke-width="0.8" opacity="0.160"/>
<polygon points="705.0,182.7 690.0,208.7 660.0,208.7 645.0,182.7 660.0,156.7 690.0,156.7" fill="none" stroke="#ffffff" stroke-width="0.8" opacity="0.001"/>
<polygon points="750.0,156.6 735.0,182.6 705.0,182.6 690.0,156.6 705.0,130.6 735.0,130.6" fill="none" stroke="#ffffff" stroke-width="0.8" opacity="0.009"/>
<polygon points="795.0,182.7 780.0,208.7 750.0,208.7 735.0,182.7 750.0,156.7 780.0,156.7" fill="none" stroke="#ffffff" stroke-width="0.8" opacity="0.017"/>
<polygon points="840.0,156.6 825.0,182.6 795.0,182.6 780.0,156.6 795.0,130.6 825.0,130.6" fill="none" stroke="#ffffff" stroke-width="0.8" opacity="0.026"/>
<polygon points="885.0,182.7 870.0,208.7 840.0,208.7 825.0,182.7 840.0,156.7 870.0,156.7" fill="none" stroke="#ffffff" stroke-width="0.8" opacity="0.034"/>
<polygon points="930.0,156.6 915.0,182.6 885.0,182.6 870.0,156.6 885.0,130.6 915.0,130.6" fill="none" stroke="#ffffff" stroke-width="0.8" opacity="0.043"/>
<polygon points="975.0,182.7 960.0,208.7 930.0,208.7 915.0,182.7 930.0,156.7 960.0,156.7" fill="none" stroke="#ffffff" stroke-width="0.8" opacity="0.051"/>
<polygon points="1020.0,156.6 1005.0,182.6 975.0,182.6 960.0,156.6 975.0,130.6 1005.0,130.6" fill="none" stroke="#ffffff" stroke-width="0.8" opacity="0.060"/>
<polygon points="1065.0,182.7 1050.0,208.7 1020.0,208.7 1005.0,182.7 1020.0,156.7 1050.0,156.7" fill="none" stroke="#ffffff" stroke-width="0.8" opacity="0.068"/>
<polygon points="1110.0,156.6 1095.0,182.6 1065.0,182.6 1050.0,156.6 1065.0,130.6 1095.0,130.6" fill="none" stroke="#ffffff" stroke-width="0.8" opacity="0.077"/>
<polygon points="1155.0,182.7 1140.0,208.7 1110.0,208.7 1095.0,182.7 1110.0,156.7 1140.0,156.7" fill="none" stroke="#ffffff" stroke-width="0.8" opacity="0.085"/>
<polygon points="1200.0,156.6 1185.0,182.6 1155.0,182.6 1140.0,156.6 1155.0,130.6 1185.0,130.6" fill="none" stroke="#ffffff" stroke-width="0.8" opacity="0.093"/>
<polygon points="1245.0,182.7 1230.0,208.7 1200.0,208.7 1185.0,182.7 1200.0,156.7 1230.0,156.7" fill="none" stroke="#ffffff" stroke-width="0.8" opacity="0.102"/>
<polygon points="1290.0,156.6 1275.0,182.6 1245.0,182.6 1230.0,156.6 1245.0,130.6 1275.0,130.6" fill="none" stroke="#ffffff" stroke-width="0.8" opacity="0.110"/>
<polygon points="1335.0,182.7 1320.0,208.7 1290.0,208.7 1275.0,182.7 1290.0,156.7 1320.0,156.7" fill="none" stroke="#ffffff" stroke-width="0.8" opacity="0.119"/>
<polygon points="1380.0,156.6 1365.0,182.6 1335.0,182.6 1320.0,156.6 1335.0,130.6 1365.0,130.6" fill="none" stroke="#ffffff" stroke-width="0.8" opacity="0.127"/>
<polygon points="1425.0,182.7 1410.0,208.7 1380.0,208.7 1365.0,182.7 1380.0,156.7 1410.0,156.7" fill="none" stroke="#ffffff" stroke-width="0.8" opacity="0.136"/>
<polygon points="1470.0,156.6 1455.0,182.6 1425.0,182.6 1410.0,156.6 1425.0,130.6 1455.0,130.6" fill="none" stroke="#ffffff" stroke-width="0.8" opacity="0.144"/>
<polygon points="1515.0,182.7 1500.0,208.7 1470.0,208.7 1455.0,182.7 1470.0,156.7 1500.0,156.7" fill="none" stroke="#ffffff" stroke-width="0.8" opacity="0.152"/>
<polygon points="1560.0,156.6 1545.0,182.6 1515.0,182.6 1500.0,156.6 1515.0,130.6 1545.0,130.6" fill="none" stroke="#ffffff" stroke-width="0.8" opacity="0.160"/>
<polygon points="1605.0,182.7 1590.0,208.7 1560.0,208.7 1545.0,182.7 1560.0,156.7 1590.0,156.7" fill="none" stroke="#ffffff" stroke-width="0.8" opacity="0.160"/>
<polygon points="1650.0,156.6 1635.0,182.6 1605.0,182.6 1590.0,156.6 1605.0,130.6 1635.0,130.6" fill="none" stroke="#ffffff" stroke-width="0.8" opacity="0.160"/>
<polygon points="705.0,234.9 690.0,260.9 660.0,260.9 645.0,234.9 660.0,208.9 690.0,208.9" fill="none" stroke="#ffffff" stroke-width="0.8" opacity="0.001"/>
<polygon points="750.0,208.8 735.0,234.8 705.0,234.8 690.0,208.8 705.0,182.8 735.0,182.8" fill="none" stroke="#ffffff" stroke-width="0.8" opacity="0.009"/>
<polygon points="795.0,234.9 780.0,260.9 750.0,260.9 735.0,234.9 750.0,208.9 780.0,208.9" fill="none" stroke="#ffffff" stroke-width="0.8" opacity="0.017"/>
<polygon points="840.0,208.8 825.0,234.8 795.0,234.8 780.0,208.8 795.0,182.8 825.0,182.8" fill="none" stroke="#ffffff" stroke-width="0.8" opacity="0.026"/>
<polygon points="885.0,234.9 870.0,260.9 840.0,260.9 825.0,234.9 840.0,208.9 870.0,208.9" fill="none" stroke="#ffffff" stroke-width="0.8" opacity="0.034"/>
<polygon points="930.0,208.8 915.0,234.8 885.0,234.8 870.0,208.8 885.0,182.8 915.0,182.8" fill="none" stroke="#ffffff" stroke-width="0.8" opacity="0.043"/>
<polygon points="975.0,234.9 960.0,260.9 930.0,260.9 915.0,234.9 930.0,208.9 960.0,208.9" fill="none" stroke="#ffffff" stroke-width="0.8" opacity="0.051"/>
<polygon points="1020.0,208.8 1005.0,234.8 975.0,234.8 960.0,208.8 975.0,182.8 1005.0,182.8" fill="none" stroke="#ffffff" stroke-width="0.8" opacity="0.060"/>
<polygon points="1065.0,234.9 1050.0,260.9 1020.0,260.9 1005.0,234.9 1020.0,208.9 1050.0,208.9" fill="none" stroke="#ffffff" stroke-width="0.8" opacity="0.068"/>
<polygon points="1110.0,208.8 1095.0,234.8 1065.0,234.8 1050.0,208.8 1065.0,182.8 1095.0,182.8" fill="none" stroke="#ffffff" stroke-width="0.8" opacity="0.077"/>
<polygon points="1155.0,234.9 1140.0,260.9 1110.0,260.9 1095.0,234.9 1110.0,208.9 1140.0,208.9" fill="none" stroke="#ffffff" stroke-width="0.8" opacity="0.085"/>
<polygon points="1200.0,208.8 1185.0,234.8 1155.0,234.8 1140.0,208.8 1155.0,182.8 1185.0,182.8" fill="none" stroke="#ffffff" stroke-width="0.8" opacity="0.093"/>
<polygon points="1245.0,234.9 1230.0,260.9 1200.0,260.9 1185.0,234.9 1200.0,208.9 1230.0,208.9" fill="none" stroke="#ffffff" stroke-width="0.8" opacity="0.102"/>
<polygon points="1290.0,208.8 1275.0,234.8 1245.0,234.8 1230.0,208.8 1245.0,182.8 1275.0,182.8" fill="none" stroke="#ffffff" stroke-width="0.8" opacity="0.110"/>
<polygon points="1335.0,234.9 1320.0,260.9 1290.0,260.9 1275.0,234.9 1290.0,208.9 1320.0,208.9" fill="none" stroke="#ffffff" stroke-width="0.8" opacity="0.119"/>
<polygon points="1380.0,208.8 1365.0,234.8 1335.0,234.8 1320.0,208.8 1335.0,182.8 1365.0,182.8" fill="none" stroke="#ffffff" stroke-width="0.8" opacity="0.127"/>
<polygon points="1425.0,234.9 1410.0,260.9 1380.0,260.9 1365.0,234.9 1380.0,208.9 1410.0,208.9" fill="none" stroke="#ffffff" stroke-width="0.8" opacity="0.136"/>
<polygon points="1470.0,208.8 1455.0,234.8 1425.0,234.8 1410.0,208.8 1425.0,182.8 1455.0,182.8" fill="none" stroke="#ffffff" stroke-width="0.8" opacity="0.144"/>
<polygon points="1515.0,234.9 1500.0,260.9 1470.0,260.9 1455.0,234.9 1470.0,208.9 1500.0,208.9" fill="none" stroke="#ffffff" stroke-width="0.8" opacity="0.152"/>
<polygon points="1560.0,208.8 1545.0,234.8 1515.0,234.8 1500.0,208.8 1515.0,182.8 1545.0,182.8" fill="none" stroke="#ffffff" stroke-width="0.8" opacity="0.160"/>
<polygon points="1605.0,234.9 1590.0,260.9 1560.0,260.9 1545.0,234.9 1560.0,208.9 1590.0,208.9" fill="none" stroke="#ffffff" stroke-width="0.8" opacity="0.160"/>
<polygon points="1650.0,208.8 1635.0,234.8 1605.0,234.8 1590.0,208.8 1605.0,182.8 1635.0,182.8" fill="none" stroke="#ffffff" stroke-width="0.8" opacity="0.160"/>
<polygon points="705.0,287.1 690.0,313.1 660.0,313.1 645.0,287.1 660.0,261.1 690.0,261.1" fill="none" stroke="#ffffff" stroke-width="0.8" opacity="0.001"/>
<polygon points="750.0,261.0 735.0,287.0 705.0,287.0 690.0,261.0 705.0,235.0 735.0,235.0" fill="none" stroke="#ffffff" stroke-width="0.8" opacity="0.009"/>
<polygon points="795.0,287.1 780.0,313.1 750.0,313.1 735.0,287.1 750.0,261.1 780.0,261.1" fill="none" stroke="#ffffff" stroke-width="0.8" opacity="0.017"/>
<polygon points="840.0,261.0 825.0,287.0 795.0,287.0 780.0,261.0 795.0,235.0 825.0,235.0" fill="none" stroke="#ffffff" stroke-width="0.8" opacity="0.026"/>
<polygon points="885.0,287.1 870.0,313.1 840.0,313.1 825.0,287.1 840.0,261.1 870.0,261.1" fill="none" stroke="#ffffff" stroke-width="0.8" opacity="0.034"/>
<polygon points="930.0,261.0 915.0,287.0 885.0,287.0 870.0,261.0 885.0,235.0 915.0,235.0" fill="none" stroke="#ffffff" stroke-width="0.8" opacity="0.043"/>
<polygon points="975.0,287.1 960.0,313.1 930.0,313.1 915.0,287.1 930.0,261.1 960.0,261.1" fill="none" stroke="#ffffff" stroke-width="0.8" opacity="0.051"/>
<polygon points="1020.0,261.0 1005.0,287.0 975.0,287.0 960.0,261.0 975.0,235.0 1005.0,235.0" fill="none" stroke="#ffffff" stroke-width="0.8" opacity="0.060"/>
<polygon points="1065.0,287.1 1050.0,313.1 1020.0,313.1 1005.0,287.1 1020.0,261.1 1050.0,261.1" fill="none" stroke="#ffffff" stroke-width="0.8" opacity="0.068"/>
<polygon points="1110.0,261.0 1095.0,287.0 1065.0,287.0 1050.0,261.0 1065.0,235.0 1095.0,235.0" fill="none" stroke="#ffffff" stroke-width="0.8" opacity="0.077"/>
<polygon points="1155.0,287.1 1140.0,313.1 1110.0,313.1 1095.0,287.1 1110.0,261.1 1140.0,261.1" fill="none" stroke="#ffffff" stroke-width="0.8" opacity="0.085"/>
<polygon points="1200.0,261.0 1185.0,287.0 1155.0,287.0 1140.0,261.0 1155.0,235.0 1185.0,235.0" fill="none" stroke="#ffffff" stroke-width="0.8" opacity="0.093"/>
<polygon points="1245.0,287.1 1230.0,313.1 1200.0,313.1 1185.0,287.1 1200.0,261.1 1230.0,261.1" fill="none" stroke="#ffffff" stroke-width="0.8" opacity="0.102"/>
<polygon points="1290.0,261.0 1275.0,287.0 1245.0,287.0 1230.0,261.0 1245.0,235.0 1275.0,235.0" fill="none" stroke="#ffffff" stroke-width="0.8" opacity="0.110"/>
<polygon points="1335.0,287.1 1320.0,313.1 1290.0,313.1 1275.0,287.1 1290.0,261.1 1320.0,261.1" fill="none" stroke="#ffffff" stroke-width="0.8" opacity="0.119"/>
<polygon points="1380.0,261.0 1365.0,287.0 1335.0,287.0 1320.0,261.0 1335.0,235.0 1365.0,235.0" fill="none" stroke="#ffffff" stroke-width="0.8" opacity="0.127"/>
<polygon points="1425.0,287.1 1410.0,313.1 1380.0,313.1 1365.0,287.1 1380.0,261.1 1410.0,261.1" fill="none" stroke="#ffffff" stroke-width="0.8" opacity="0.136"/>
<polygon points="1470.0,261.0 1455.0,287.0 1425.0,287.0 1410.0,261.0 1425.0,235.0 1455.0,235.0" fill="none" stroke="#ffffff" stroke-width="0.8" opacity="0.144"/>
<polygon points="1515.0,287.1 1500.0,313.1 1470.0,313.1 1455.0,287.1 1470.0,261.1 1500.0,261.1" fill="none" stroke="#ffffff" stroke-width="0.8" opacity="0.152"/>
<polygon points="1560.0,261.0 1545.0,287.0 1515.0,287.0 1500.0,261.0 1515.0,235.0 1545.0,235.0" fill="none" stroke="#ffffff" stroke-width="0.8" opacity="0.160"/>
<polygon points="1605.0,287.1 1590.0,313.1 1560.0,313.1 1545.0,287.1 1560.0,261.1 1590.0,261.1" fill="none" stroke="#ffffff" stroke-width="0.8" opacity="0.160"/>
<polygon points="1650.0,261.0 1635.0,287.0 1605.0,287.0 1590.0,261.0 1605.0,235.0 1635.0,235.0" fill="none" stroke="#ffffff" stroke-width="0.8" opacity="0.160"/>
<polygon points="705.0,339.3 690.0,365.3 660.0,365.3 645.0,339.3 660.0,313.3 690.0,313.3" fill="none" stroke="#ffffff" stroke-width="0.8" opacity="0.001"/>
<polygon points="750.0,313.2 735.0,339.2 705.0,339.2 690.0,313.2 705.0,287.2 735.0,287.2" fill="none" stroke="#ffffff" stroke-width="0.8" opacity="0.009"/>
<polygon points="795.0,339.3 780.0,365.3 750.0,365.3 735.0,339.3 750.0,313.3 780.0,313.3" fill="none" stroke="#ffffff" stroke-width="0.8" opacity="0.017"/>
<polygon points="840.0,313.2 825.0,339.2 795.0,339.2 780.0,313.2 795.0,287.2 825.0,287.2" fill="none" stroke="#ffffff" stroke-width="0.8" opacity="0.026"/>
<polygon points="885.0,339.3 870.0,365.3 840.0,365.3 825.0,339.3 840.0,313.3 870.0,313.3" fill="none" stroke="#ffffff" stroke-width="0.8" opacity="0.034"/>
<polygon points="930.0,313.2 915.0,339.2 885.0,339.2 870.0,313.2 885.0,287.2 915.0,287.2" fill="none" stroke="#ffffff" stroke-width="0.8" opacity="0.043"/>
<polygon points="975.0,339.3 960.0,365.3 930.0,365.3 915.0,339.3 930.0,313.3 960.0,313.3" fill="none" stroke="#ffffff" stroke-width="0.8" opacity="0.051"/>
<polygon points="1020.0,313.2 1005.0,339.2 975.0,339.2 960.0,313.2 975.0,287.2 1005.0,287.2" fill="none" stroke="#ffffff" stroke-width="0.8" opacity="0.060"/>
<polygon points="1065.0,339.3 1050.0,365.3 1020.0,365.3 1005.0,339.3 1020.0,313.3 1050.0,313.3" fill="none" stroke="#ffffff" stroke-width="0.8" opacity="0.068"/>
<polygon points="1110.0,313.2 1095.0,339.2 1065.0,339.2 1050.0,313.2 1065.0,287.2 1095.0,287.2" fill="none" stroke="#ffffff" stroke-width="0.8" opacity="0.077"/>
<polygon points="1155.0,339.3 1140.0,365.3 1110.0,365.3 1095.0,339.3 1110.0,313.3 1140.0,313.3" fill="none" stroke="#ffffff" stroke-width="0.8" opacity="0.085"/>
<polygon points="1200.0,313.2 1185.0,339.2 1155.0,339.2 1140.0,313.2 1155.0,287.2 1185.0,287.2" fill="none" stroke="#ffffff" stroke-width="0.8" opacity="0.093"/>
<polygon points="1245.0,339.3 1230.0,365.3 1200.0,365.3 1185.0,339.3 1200.0,313.3 1230.0,313.3" fill="none" stroke="#ffffff" stroke-width="0.8" opacity="0.102"/>
<polygon points="1290.0,313.2 1275.0,339.2 1245.0,339.2 1230.0,313.2 1245.0,287.2 1275.0,287.2" fill="none" stroke="#ffffff" stroke-width="0.8" opacity="0.110"/>
<polygon points="1335.0,339.3 1320.0,365.3 1290.0,365.3 1275.0,339.3 1290.0,313.3 1320.0,313.3" fill="none" stroke="#ffffff" stroke-width="0.8" opacity="0.119"/>
<polygon points="1380.0,313.2 1365.0,339.2 1335.0,339.2 1320.0,313.2 1335.0,287.2 1365.0,287.2" fill="none" stroke="#ffffff" stroke-width="0.8" opacity="0.127"/>
<polygon points="1425.0,339.3 1410.0,365.3 1380.0,365.3 1365.0,339.3 1380.0,313.3 1410.0,313.3" fill="none" stroke="#ffffff" stroke-width="0.8" opacity="0.136"/>
<polygon points="1470.0,313.2 1455.0,339.2 1425.0,339.2 1410.0,313.2 1425.0,287.2 1455.0,287.2" fill="none" stroke="#ffffff" stroke-width="0.8" opacity="0.144"/>
<polygon points="1515.0,339.3 1500.0,365.3 1470.0,365.3 1455.0,339.3 1470.0,313.3 1500.0,313.3" fill="none" stroke="#ffffff" stroke-width="0.8" opacity="0.152"/>
<polygon points="1560.0,313.2 1545.0,339.2 1515.0,339.2 1500.0,313.2 1515.0,287.2 1545.0,287.2" fill="none" stroke="#ffffff" stroke-width="0.8" opacity="0.160"/>
<polygon points="1605.0,339.3 1590.0,365.3 1560.0,365.3 1545.0,339.3 1560.0,313.3 1590.0,313.3" fill="none" stroke="#ffffff" stroke-width="0.8" opacity="0.160"/>
<polygon points="1650.0,313.2 1635.0,339.2 1605.0,339.2 1590.0,313.2 1605.0,287.2 1635.0,287.2" fill="none" stroke="#ffffff" stroke-width="0.8" opacity="0.160"/>
<polygon points="705.0,391.5 690.0,417.5 660.0,417.5 645.0,391.5 660.0,365.5 690.0,365.5" fill="none" stroke="#ffffff" stroke-width="0.8" opacity="0.001"/>
<polygon points="750.0,365.4 735.0,391.4 705.0,391.4 690.0,365.4 705.0,339.4 735.0,339.4" fill="none" stroke="#ffffff" stroke-width="0.8" opacity="0.009"/>
<polygon points="795.0,391.5 780.0,417.5 750.0,417.5 735.0,391.5 750.0,365.5 780.0,365.5" fill="none" stroke="#ffffff" stroke-width="0.8" opacity="0.017"/>
<polygon points="840.0,365.4 825.0,391.4 795.0,391.4 780.0,365.4 795.0,339.4 825.0,339.4" fill="none" stroke="#ffffff" stroke-width="0.8" opacity="0.026"/>
<polygon points="885.0,391.5 870.0,417.5 840.0,417.5 825.0,391.5 840.0,365.5 870.0,365.5" fill="none" stroke="#ffffff" stroke-width="0.8" opacity="0.034"/>
<polygon points="930.0,365.4 915.0,391.4 885.0,391.4 870.0,365.4 885.0,339.4 915.0,339.4" fill="none" stroke="#ffffff" stroke-width="0.8" opacity="0.043"/>
<polygon points="975.0,391.5 960.0,417.5 930.0,417.5 915.0,391.5 930.0,365.5 960.0,365.5" fill="none" stroke="#ffffff" stroke-width="0.8" opacity="0.051"/>
<polygon points="1020.0,365.4 1005.0,391.4 975.0,391.4 960.0,365.4 975.0,339.4 1005.0,339.4" fill="none" stroke="#ffffff" stroke-width="0.8" opacity="0.060"/>
<polygon points="1065.0,391.5 1050.0,417.5 1020.0,417.5 1005.0,391.5 1020.0,365.5 1050.0,365.5" fill="none" stroke="#ffffff" stroke-width="0.8" opacity="0.068"/>
<polygon points="1110.0,365.4 1095.0,391.4 1065.0,391.4 1050.0,365.4 1065.0,339.4 1095.0,339.4" fill="none" stroke="#ffffff" stroke-width="0.8" opacity="0.077"/>
<polygon points="1155.0,391.5 1140.0,417.5 1110.0,417.5 1095.0,391.5 1110.0,365.5 1140.0,365.5" fill="none" stroke="#ffffff" stroke-width="0.8" opacity="0.085"/>
<polygon points="1200.0,365.4 1185.0,391.4 1155.0,391.4 1140.0,365.4 1155.0,339.4 1185.0,339.4" fill="none" stroke="#ffffff" stroke-width="0.8" opacity="0.093"/>
<polygon points="1245.0,391.5 1230.0,417.5 1200.0,417.5 1185.0,391.5 1200.0,365.5 1230.0,365.5" fill="none" stroke="#ffffff" stroke-width="0.8" opacity="0.102"/>
<polygon points="1290.0,365.4 1275.0,391.4 1245.0,391.4 1230.0,365.4 1245.0,339.4 1275.0,339.4" fill="none" stroke="#ffffff" stroke-width="0.8" opacity="0.110"/>
<polygon points="1335.0,391.5 1320.0,417.5 1290.0,417.5 1275.0,391.5 1290.0,365.5 1320.0,365.5" fill="none" stroke="#ffffff" stroke-width="0.8" opacity="0.119"/>
<polygon points="1380.0,365.4 1365.0,391.4 1335.0,391.4 1320.0,365.4 1335.0,339.4 1365.0,339.4" fill="none" stroke="#ffffff" stroke-width="0.8" opacity="0.127"/>
<polygon points="1425.0,391.5 1410.0,417.5 1380.0,417.5 1365.0,391.5 1380.0,365.5 1410.0,365.5" fill="none" stroke="#ffffff" stroke-width="0.8" opacity="0.136"/>
<polygon points="1470.0,365.4 1455.0,391.4 1425.0,391.4 1410.0,365.4 1425.0,339.4 1455.0,339.4" fill="none" stroke="#ffffff" stroke-width="0.8" opacity="0.144"/>
<polygon points="1515.0,391.5 1500.0,417.5 1470.0,417.5 1455.0,391.5 1470.0,365.5 1500.0,365.5" fill="none" stroke="#ffffff" stroke-width="0.8" opacity="0.152"/>
<polygon points="1560.0,365.4 1545.0,391.4 1515.0,391.4 1500.0,365.4 1515.0,339.4 1545.0,339.4" fill="none" stroke="#ffffff" stroke-width="0.8" opacity="0.160"/>
<polygon points="1605.0,391.5 1590.0,417.5 1560.0,417.5 1545.0,391.5 1560.0,365.5 1590.0,365.5" fill="none" stroke="#ffffff" stroke-width="0.8" opacity="0.160"/>
<polygon points="1650.0,365.4 1635.0,391.4 1605.0,391.4 1590.0,365.4 1605.0,339.4 1635.0,339.4" fill="none" stroke="#ffffff" stroke-width="0.8" opacity="0.160"/>
<polygon points="705.0,443.7 690.0,469.7 660.0,469.7 645.0,443.7 660.0,417.7 690.0,417.7" fill="none" stroke="#ffffff" stroke-width="0.8" opacity="0.001"/>
<polygon points="750.0,417.6 735.0,443.6 705.0,443.6 690.0,417.6 705.0,391.6 735.0,391.6" fill="none" stroke="#ffffff" stroke-width="0.8" opacity="0.009"/>
<polygon points="795.0,443.7 780.0,469.7 750.0,469.7 735.0,443.7 750.0,417.7 780.0,417.7" fill="none" stroke="#ffffff" stroke-width="0.8" opacity="0.017"/>
<polygon points="840.0,417.6 825.0,443.6 795.0,443.6 780.0,417.6 795.0,391.6 825.0,391.6" fill="none" stroke="#ffffff" stroke-width="0.8" opacity="0.026"/>
<polygon points="885.0,443.7 870.0,469.7 840.0,469.7 825.0,443.7 840.0,417.7 870.0,417.7" fill="none" stroke="#ffffff" stroke-width="0.8" opacity="0.034"/>
<polygon points="930.0,417.6 915.0,443.6 885.0,443.6 870.0,417.6 885.0,391.6 915.0,391.6" fill="none" stroke="#ffffff" stroke-width="0.8" opacity="0.043"/>
<polygon points="975.0,443.7 960.0,469.7 930.0,469.7 915.0,443.7 930.0,417.7 960.0,417.7" fill="none" stroke="#ffffff" stroke-width="0.8" opacity="0.051"/>
<polygon points="1020.0,417.6 1005.0,443.6 975.0,443.6 960.0,417.6 975.0,391.6 1005.0,391.6" fill="none" stroke="#ffffff" stroke-width="0.8" opacity="0.060"/>
<polygon points="1065.0,443.7 1050.0,469.7 1020.0,469.7 1005.0,443.7 1020.0,417.7 1050.0,417.7" fill="none" stroke="#ffffff" stroke-width="0.8" opacity="0.068"/>
<polygon points="1110.0,417.6 1095.0,443.6 1065.0,443.6 1050.0,417.6 1065.0,391.6 1095.0,391.6" fill="none" stroke="#ffffff" stroke-width="0.8" opacity="0.077"/>
<polygon points="1155.0,443.7 1140.0,469.7 1110.0,469.7 1095.0,443.7 1110.0,417.7 1140.0,417.7" fill="none" stroke="#ffffff" stroke-width="0.8" opacity="0.085"/>
<polygon points="1200.0,417.6 1185.0,443.6 1155.0,443.6 1140.0,417.6 1155.0,391.6 1185.0,391.6" fill="none" stroke="#ffffff" stroke-width="0.8" opacity="0.093"/>
<polygon points="1245.0,443.7 1230.0,469.7 1200.0,469.7 1185.0,443.7 1200.0,417.7 1230.0,417.7" fill="none" stroke="#ffffff" stroke-width="0.8" opacity="0.102"/>
<polygon points="1290.0,417.6 1275.0,443.6 1245.0,443.6 1230.0,417.6 1245.0,391.6 1275.0,391.6" fill="none" stroke="#ffffff" stroke-width="0.8" opacity="0.110"/>
<polygon points="1335.0,443.7 1320.0,469.7 1290.0,469.7 1275.0,443.7 1290.0,417.7 1320.0,417.7" fill="none" stroke="#ffffff" stroke-width="0.8" opacity="0.119"/>
<polygon points="1380.0,417.6 1365.0,443.6 1335.0,443.6 1320.0,417.6 1335.0,391.6 1365.0,391.6" fill="none" stroke="#ffffff" stroke-width="0.8" opacity="0.127"/>
<polygon points="1425.0,443.7 1410.0,469.7 1380.0,469.7 1365.0,443.7 1380.0,417.7 1410.0,417.7" fill="none" stroke="#ffffff" stroke-width="0.8" opacity="0.136"/>
<polygon points="1470.0,417.6 1455.0,443.6 1425.0,443.6 1410.0,417.6 1425.0,391.6 1455.0,391.6" fill="none" stroke="#ffffff" stroke-width="0.8" opacity="0.144"/>
<polygon points="1515.0,443.7 1500.0,469.7 1470.0,469.7 1455.0,443.7 1470.0,417.7 1500.0,417.7" fill="none" stroke="#ffffff" stroke-width="0.8" opacity="0.152"/>
<polygon points="1560.0,417.6 1545.0,443.6 1515.0,443.6 1500.0,417.6 1515.0,391.6 1545.0,391.6" fill="none" stroke="#ffffff" stroke-width="0.8" opacity="0.160"/>
<polygon points="1605.0,443.7 1590.0,469.7 1560.0,469.7 1545.0,443.7 1560.0,417.7 1590.0,417.7" fill="none" stroke="#ffffff" stroke-width="0.8" opacity="0.160"/>
<polygon points="1650.0,417.6 1635.0,443.6 1605.0,443.6 1590.0,417.6 1605.0,391.6 1635.0,391.6" fill="none" stroke="#ffffff" stroke-width="0.8" opacity="0.160"/>
<polygon points="705.0,495.9 690.0,521.9 660.0,521.9 645.0,495.9 660.0,469.9 690.0,469.9" fill="none" stroke="#ffffff" stroke-width="0.8" opacity="0.001"/>
<polygon points="750.0,469.8 735.0,495.8 705.0,495.8 690.0,469.8 705.0,443.8 735.0,443.8" fill="none" stroke="#ffffff" stroke-width="0.8" opacity="0.009"/>
<polygon points="795.0,495.9 780.0,521.9 750.0,521.9 735.0,495.9 750.0,469.9 780.0,469.9" fill="none" stroke="#ffffff" stroke-width="0.8" opacity="0.017"/>
<polygon points="840.0,469.8 825.0,495.8 795.0,495.8 780.0,469.8 795.0,443.8 825.0,443.8" fill="none" stroke="#ffffff" stroke-width="0.8" opacity="0.026"/>
<polygon points="885.0,495.9 870.0,521.9 840.0,521.9 825.0,495.9 840.0,469.9 870.0,469.9" fill="none" stroke="#ffffff" stroke-width="0.8" opacity="0.034"/>
<polygon points="930.0,469.8 915.0,495.8 885.0,495.8 870.0,469.8 885.0,443.8 915.0,443.8" fill="none" stroke="#ffffff" stroke-width="0.8" opacity="0.043"/>
<polygon points="975.0,495.9 960.0,521.9 930.0,521.9 915.0,495.9 930.0,469.9 960.0,469.9" fill="none" stroke="#ffffff" stroke-width="0.8" opacity="0.051"/>
<polygon points="1020.0,469.8 1005.0,495.8 975.0,495.8 960.0,469.8 975.0,443.8 1005.0,443.8" fill="none" stroke="#ffffff" stroke-width="0.8" opacity="0.060"/>
<polygon points="1065.0,495.9 1050.0,521.9 1020.0,521.9 1005.0,495.9 1020.0,469.9 1050.0,469.9" fill="none" stroke="#ffffff" stroke-width="0.8" opacity="0.068"/>
<polygon points="1110.0,469.8 1095.0,495.8 1065.0,495.8 1050.0,469.8 1065.0,443.8 1095.0,443.8" fill="none" stroke="#ffffff" stroke-width="0.8" opacity="0.077"/>
<polygon points="1155.0,495.9 1140.0,521.9 1110.0,521.9 1095.0,495.9 1110.0,469.9 1140.0,469.9" fill="none" stroke="#ffffff" stroke-width="0.8" opacity="0.085"/>
<polygon points="1200.0,469.8 1185.0,495.8 1155.0,495.8 1140.0,469.8 1155.0,443.8 1185.0,443.8" fill="none" stroke="#ffffff" stroke-width="0.8" opacity="0.093"/>
<polygon points="1245.0,495.9 1230.0,521.9 1200.0,521.9 1185.0,495.9 1200.0,469.9 1230.0,469.9" fill="none" stroke="#ffffff" stroke-width="0.8" opacity="0.102"/>
<polygon points="1290.0,469.8 1275.0,495.8 1245.0,495.8 1230.0,469.8 1245.0,443.8 1275.0,443.8" fill="none" stroke="#ffffff" stroke-width="0.8" opacity="0.110"/>
<polygon points="1335.0,495.9 1320.0,521.9 1290.0,521.9 1275.0,495.9 1290.0,469.9 1320.0,469.9" fill="none" stroke="#ffffff" stroke-width="0.8" opacity="0.119"/>
<polygon points="1380.0,469.8 1365.0,495.8 1335.0,495.8 1320.0,469.8 1335.0,443.8 1365.0,443.8" fill="none" stroke="#ffffff" stroke-width="0.8" opacity="0.127"/>
<polygon points="1425.0,495.9 1410.0,521.9 1380.0,521.9 1365.0,495.9 1380.0,469.9 1410.0,469.9" fill="none" stroke="#ffffff" stroke-width="0.8" opacity="0.136"/>
<polygon points="1470.0,469.8 1455.0,495.8 1425.0,495.8 1410.0,469.8 1425.0,443.8 1455.0,443.8" fill="none" stroke="#ffffff" stroke-width="0.8" opacity="0.144"/>
<polygon points="1515.0,495.9 1500.0,521.9 1470.0,521.9 1455.0,495.9 1470.0,469.9 1500.0,469.9" fill="none" stroke="#ffffff" stroke-width="0.8" opacity="0.152"/>
<polygon points="1560.0,469.8 1545.0,495.8 1515.0,495.8 1500.0,469.8 1515.0,443.8 1545.0,443.8" fill="none" stroke="#ffffff" stroke-width="0.8" opacity="0.160"/>
<polygon points="1605.0,495.9 1590.0,521.9 1560.0,521.9 1545.0,495.9 1560.0,469.9 1590.0,469.9" fill="none" stroke="#ffffff" stroke-width="0.8" opacity="0.160"/>
<polygon points="1650.0,469.8 1635.0,495.8 1605.0,495.8 1590.0,469.8 1605.0,443.8 1635.0,443.8" fill="none" stroke="#ffffff" stroke-width="0.8" opacity="0.160"/>
<polygon points="705.0,548.1 690.0,574.1 660.0,574.1 645.0,548.1 660.0,522.1 690.0,522.1" fill="none" stroke="#ffffff" stroke-width="0.8" opacity="0.001"/>
<polygon points="750.0,522.0 735.0,548.0 705.0,548.0 690.0,522.0 705.0,496.0 735.0,496.0" fill="none" stroke="#ffffff" stroke-width="0.8" opacity="0.009"/>
<polygon points="795.0,548.1 780.0,574.1 750.0,574.1 735.0,548.1 750.0,522.1 780.0,522.1" fill="none" stroke="#ffffff" stroke-width="0.8" opacity="0.017"/>
<polygon points="840.0,522.0 825.0,548.0 795.0,548.0 780.0,522.0 795.0,496.0 825.0,496.0" fill="none" stroke="#ffffff" stroke-width="0.8" opacity="0.026"/>
<polygon points="885.0,548.1 870.0,574.1 840.0,574.1 825.0,548.1 840.0,522.1 870.0,522.1" fill="none" stroke="#ffffff" stroke-width="0.8" opacity="0.034"/>
<polygon points="930.0,522.0 915.0,548.0 885.0,548.0 870.0,522.0 885.0,496.0 915.0,496.0" fill="none" stroke="#ffffff" stroke-width="0.8" opacity="0.043"/>
<polygon points="975.0,548.1 960.0,574.1 930.0,574.1 915.0,548.1 930.0,522.1 960.0,522.1" fill="none" stroke="#ffffff" stroke-width="0.8" opacity="0.051"/>
<polygon points="1020.0,522.0 1005.0,548.0 975.0,548.0 960.0,522.0 975.0,496.0 1005.0,496.0" fill="none" stroke="#ffffff" stroke-width="0.8" opacity="0.060"/>
<polygon points="1065.0,548.1 1050.0,574.1 1020.0,574.1 1005.0,548.1 1020.0,522.1 1050.0,522.1" fill="none" stroke="#ffffff" stroke-width="0.8" opacity="0.068"/>
<polygon points="1110.0,522.0 1095.0,548.0 1065.0,548.0 1050.0,522.0 1065.0,496.0 1095.0,496.0" fill="none" stroke="#ffffff" stroke-width="0.8" opacity="0.077"/>
<polygon points="1155.0,548.1 1140.0,574.1 1110.0,574.1 1095.0,548.1 1110.0,522.1 1140.0,522.1" fill="none" stroke="#ffffff" stroke-width="0.8" opacity="0.085"/>
<polygon points="1200.0,522.0 1185.0,548.0 1155.0,548.0 1140.0,522.0 1155.0,496.0 1185.0,496.0" fill="none" stroke="#ffffff" stroke-width="0.8" opacity="0.093"/>
<polygon points="1245.0,548.1 1230.0,574.1 1200.0,574.1 1185.0,548.1 1200.0,522.1 1230.0,522.1" fill="none" stroke="#ffffff" stroke-width="0.8" opacity="0.102"/>
<polygon points="1290.0,522.0 1275.0,548.0 1245.0,548.0 1230.0,522.0 1245.0,496.0 1275.0,496.0" fill="none" stroke="#ffffff" stroke-width="0.8" opacity="0.110"/>
<polygon points="1335.0,548.1 1320.0,574.1 1290.0,574.1 1275.0,548.1 1290.0,522.1 1320.0,522.1" fill="none" stroke="#ffffff" stroke-width="0.8" opacity="0.119"/>
<polygon points="1380.0,522.0 1365.0,548.0 1335.0,548.0 1320.0,522.0 1335.0,496.0 1365.0,496.0" fill="none" stroke="#ffffff" stroke-width="0.8" opacity="0.127"/>
<polygon points="1425.0,548.1 1410.0,574.1 1380.0,574.1 1365.0,548.1 1380.0,522.1 1410.0,522.1" fill="none" stroke="#ffffff" stroke-width="0.8" opacity="0.136"/>
<polygon points="1470.0,522.0 1455.0,548.0 1425.0,548.0 1410.0,522.0 1425.0,496.0 1455.0,496.0" fill="none" stroke="#ffffff" stroke-width="0.8" opacity="0.144"/>
<polygon points="1515.0,548.1 1500.0,574.1 1470.0,574.1 1455.0,548.1 1470.0,522.1 1500.0,522.1" fill="none" stroke="#ffffff" stroke-width="0.8" opacity="0.152"/>
<polygon points="1560.0,522.0 1545.0,548.0 1515.0,548.0 1500.0,522.0 1515.0,496.0 1545.0,496.0" fill="none" stroke="#ffffff" stroke-width="0.8" opacity="0.160"/>
<polygon points="1605.0,548.1 1590.0,574.1 1560.0,574.1 1545.0,548.1 1560.0,522.1 1590.0,522.1" fill="none" stroke="#ffffff" stroke-width="0.8" opacity="0.160"/>
<polygon points="1650.0,522.0 1635.0,548.0 1605.0,548.0 1590.0,522.0 1605.0,496.0 1635.0,496.0" fill="none" stroke="#ffffff" stroke-width="0.8" opacity="0.160"/>
<polygon points="705.0,600.3 690.0,626.3 660.0,626.3 645.0,600.3 660.0,574.3 690.0,574.3" fill="none" stroke="#ffffff" stroke-width="0.8" opacity="0.001"/>
<polygon points="750.0,574.2 735.0,600.2 705.0,600.2 690.0,574.2 705.0,548.2 735.0,548.2" fill="none" stroke="#ffffff" stroke-width="0.8" opacity="0.009"/>
<polygon points="795.0,600.3 780.0,626.3 750.0,626.3 735.0,600.3 750.0,574.3 780.0,574.3" fill="none" stroke="#ffffff" stroke-width="0.8" opacity="0.017"/>
<polygon points="840.0,574.2 825.0,600.2 795.0,600.2 780.0,574.2 795.0,548.2 825.0,548.2" fill="none" stroke="#ffffff" stroke-width="0.8" opacity="0.026"/>
<polygon points="885.0,600.3 870.0,626.3 840.0,626.3 825.0,600.3 840.0,574.3 870.0,574.3" fill="none" stroke="#ffffff" stroke-width="0.8" opacity="0.034"/>
<polygon points="930.0,574.2 915.0,600.2 885.0,600.2 870.0,574.2 885.0,548.2 915.0,548.2" fill="none" stroke="#ffffff" stroke-width="0.8" opacity="0.043"/>
<polygon points="975.0,600.3 960.0,626.3 930.0,626.3 915.0,600.3 930.0,574.3 960.0,574.3" fill="none" stroke="#ffffff" stroke-width="0.8" opacity="0.051"/>
<polygon points="1020.0,574.2 1005.0,600.2 975.0,600.2 960.0,574.2 975.0,548.2 1005.0,548.2" fill="none" stroke="#ffffff" stroke-width="0.8" opacity="0.060"/>
<polygon points="1065.0,600.3 1050.0,626.3 1020.0,626.3 1005.0,600.3 1020.0,574.3 1050.0,574.3" fill="none" stroke="#ffffff" stroke-width="0.8" opacity="0.068"/>
<polygon points="1110.0,574.2 1095.0,600.2 1065.0,600.2 1050.0,574.2 1065.0,548.2 1095.0,548.2" fill="none" stroke="#ffffff" stroke-width="0.8" opacity="0.077"/>
<polygon points="1155.0,600.3 1140.0,626.3 1110.0,626.3 1095.0,600.3 1110.0,574.3 1140.0,574.3" fill="none" stroke="#ffffff" stroke-width="0.8" opacity="0.085"/>
<polygon points="1200.0,574.2 1185.0,600.2 1155.0,600.2 1140.0,574.2 1155.0,548.2 1185.0,548.2" fill="none" stroke="#ffffff" stroke-width="0.8" opacity="0.093"/>
<polygon points="1245.0,600.3 1230.0,626.3 1200.0,626.3 1185.0,600.3 1200.0,574.3 1230.0,574.3" fill="none" stroke="#ffffff" stroke-width="0.8" opacity="0.102"/>
<polygon points="1290.0,574.2 1275.0,600.2 1245.0,600.2 1230.0,574.2 1245.0,548.2 1275.0,548.2" fill="none" stroke="#ffffff" stroke-width="0.8" opacity="0.110"/>
<polygon points="1335.0,600.3 1320.0,626.3 1290.0,626.3 1275.0,600.3 1290.0,574.3 1320.0,574.3" fill="none" stroke="#ffffff" stroke-width="0.8" opacity="0.119"/>
<polygon points="1380.0,574.2 1365.0,600.2 1335.0,600.2 1320.0,574.2 1335.0,548.2 1365.0,548.2" fill="none" stroke="#ffffff" stroke-width="0.8" opacity="0.127"/>
<polygon points="1425.0,600.3 1410.0,626.3 1380.0,626.3 1365.0,600.3 1380.0,574.3 1410.0,574.3" fill="none" stroke="#ffffff" stroke-width="0.8" opacity="0.136"/>
<polygon points="1470.0,574.2 1455.0,600.2 1425.0,600.2 1410.0,574.2 1425.0,548.2 1455.0,548.2" fill="none" stroke="#ffffff" stroke-width="0.8" opacity="0.144"/>
<polygon points="1515.0,600.3 1500.0,626.3 1470.0,626.3 1455.0,600.3 1470.0,574.3 1500.0,574.3" fill="none" stroke="#ffffff" stroke-width="0.8" opacity="0.152"/>
<polygon points="1560.0,574.2 1545.0,600.2 1515.0,600.2 1500.0,574.2 1515.0,548.2 1545.0,548.2" fill="none" stroke="#ffffff" stroke-width="0.8" opacity="0.160"/>
<polygon points="1605.0,600.3 1590.0,626.3 1560.0,626.3 1545.0,600.3 1560.0,574.3 1590.0,574.3" fill="none" stroke="#ffffff" stroke-width="0.8" opacity="0.160"/>
<polygon points="1650.0,574.2 1635.0,600.2 1605.0,600.2 1590.0,574.2 1605.0,548.2 1635.0,548.2" fill="none" stroke="#ffffff" stroke-width="0.8" opacity="0.160"/>
<polygon points="705.0,652.5 690.0,678.5 660.0,678.5 645.0,652.5 660.0,626.5 690.0,626.5" fill="none" stroke="#ffffff" stroke-width="0.8" opacity="0.001"/>
<polygon points="750.0,626.4 735.0,652.4 705.0,652.4 690.0,626.4 705.0,600.4 735.0,600.4" fill="none" stroke="#ffffff" stroke-width="0.8" opacity="0.009"/>
<polygon points="795.0,652.5 780.0,678.5 750.0,678.5 735.0,652.5 750.0,626.5 780.0,626.5" fill="none" stroke="#ffffff" stroke-width="0.8" opacity="0.017"/>
<polygon points="840.0,626.4 825.0,652.4 795.0,652.4 780.0,626.4 795.0,600.4 825.0,600.4" fill="none" stroke="#ffffff" stroke-width="0.8" opacity="0.026"/>
<polygon points="885.0,652.5 870.0,678.5 840.0,678.5 825.0,652.5 840.0,626.5 870.0,626.5" fill="none" stroke="#ffffff" stroke-width="0.8" opacity="0.034"/>
<polygon points="930.0,626.4 915.0,652.4 885.0,652.4 870.0,626.4 885.0,600.4 915.0,600.4" fill="none" stroke="#ffffff" stroke-width="0.8" opacity="0.043"/>
<polygon points="975.0,652.5 960.0,678.5 930.0,678.5 915.0,652.5 930.0,626.5 960.0,626.5" fill="none" stroke="#ffffff" stroke-width="0.8" opacity="0.051"/>
<polygon points="1020.0,626.4 1005.0,652.4 975.0,652.4 960.0,626.4 975.0,600.4 1005.0,600.4" fill="none" stroke="#ffffff" stroke-width="0.8" opacity="0.060"/>
<polygon points="1065.0,652.5 1050.0,678.5 1020.0,678.5 1005.0,652.5 1020.0,626.5 1050.0,626.5" fill="none" stroke="#ffffff" stroke-width="0.8" opacity="0.068"/>
<polygon points="1110.0,626.4 1095.0,652.4 1065.0,652.4 1050.0,626.4 1065.0,600.4 1095.0,600.4" fill="none" stroke="#ffffff" stroke-width="0.8" opacity="0.077"/>
<polygon points="1155.0,652.5 1140.0,678.5 1110.0,678.5 1095.0,652.5 1110.0,626.5 1140.0,626.5" fill="none" stroke="#ffffff" stroke-width="0.8" opacity="0.085"/>
<polygon points="1200.0,626.4 1185.0,652.4 1155.0,652.4 1140.0,626.4 1155.0,600.4 1185.0,600.4" fill="none" stroke="#ffffff" stroke-width="0.8" opacity="0.093"/>
<polygon points="1245.0,652.5 1230.0,678.5 1200.0,678.5 1185.0,652.5 1200.0,626.5 1230.0,626.5" fill="none" stroke="#ffffff" stroke-width="0.8" opacity="0.102"/>
<polygon points="1290.0,626.4 1275.0,652.4 1245.0,652.4 1230.0,626.4 1245.0,600.4 1275.0,600.4" fill="none" stroke="#ffffff" stroke-width="0.8" opacity="0.110"/>
<polygon points="1335.0,652.5 1320.0,678.5 1290.0,678.5 1275.0,652.5 1290.0,626.5 1320.0,626.5" fill="none" stroke="#ffffff" stroke-width="0.8" opacity="0.119"/>
<polygon points="1380.0,626.4 1365.0,652.4 1335.0,652.4 1320.0,626.4 1335.0,600.4 1365.0,600.4" fill="none" stroke="#ffffff" stroke-width="0.8" opacity="0.127"/>
<polygon points="1425.0,652.5 1410.0,678.5 1380.0,678.5 1365.0,652.5 1380.0,626.5 1410.0,626.5" fill="none" stroke="#ffffff" stroke-width="0.8" opacity="0.136"/>
<polygon points="1470.0,626.4 1455.0,652.4 1425.0,652.4 1410.0,626.4 1425.0,600.4 1455.0,600.4" fill="none" stroke="#ffffff" stroke-width="0.8" opacity="0.144"/>
<polygon points="1515.0,652.5 1500.0,678.5 1470.0,678.5 1455.0,652.5 1470.0,626.5 1500.0,626.5" fill="none" stroke="#ffffff" stroke-width="0.8" opacity="0.152"/>
<polygon points="1560.0,626.4 1545.0,652.4 1515.0,652.4 1500.0,626.4 1515.0,600.4 1545.0,600.4" fill="none" stroke="#ffffff" stroke-width="0.8" opacity="0.160"/>
<polygon points="1605.0,652.5 1590.0,678.5 1560.0,678.5 1545.0,652.5 1560.0,626.5 1590.0,626.5" fill="none" stroke="#ffffff" stroke-width="0.8" opacity="0.160"/>
<polygon points="1650.0,626.4 1635.0,652.4 1605.0,652.4 1590.0,626.4 1605.0,600.4 1635.0,600.4" fill="none" stroke="#ffffff" stroke-width="0.8" opacity="0.160"/>
<polygon points="705.0,704.7 690.0,730.7 660.0,730.7 645.0,704.7 660.0,678.7 690.0,678.7" fill="none" stroke="#ffffff" stroke-width="0.8" opacity="0.001"/>
<polygon points="750.0,678.6 735.0,704.6 705.0,704.6 690.0,678.6 705.0,652.6 735.0,652.6" fill="none" stroke="#ffffff" stroke-width="0.8" opacity="0.009"/>
<polygon points="795.0,704.7 780.0,730.7 750.0,730.7 735.0,704.7 750.0,678.7 780.0,678.7" fill="none" stroke="#ffffff" stroke-width="0.8" opacity="0.017"/>
<polygon points="840.0,678.6 825.0,704.6 795.0,704.6 780.0,678.6 795.0,652.6 825.0,652.6" fill="none" stroke="#ffffff" stroke-width="0.8" opacity="0.026"/>
<polygon points="885.0,704.7 870.0,730.7 840.0,730.7 825.0,704.7 840.0,678.7 870.0,678.7" fill="none" stroke="#ffffff" stroke-width="0.8" opacity="0.034"/>
<polygon points="930.0,678.6 915.0,704.6 885.0,704.6 870.0,678.6 885.0,652.6 915.0,652.6" fill="none" stroke="#ffffff" stroke-width="0.8" opacity="0.043"/>
<polygon points="975.0,704.7 960.0,730.7 930.0,730.7 915.0,704.7 930.0,678.7 960.0,678.7" fill="none" stroke="#ffffff" stroke-width="0.8" opacity="0.051"/>
<polygon points="1020.0,678.6 1005.0,704.6 975.0,704.6 960.0,678.6 975.0,652.6 1005.0,652.6" fill="none" stroke="#ffffff" stroke-width="0.8" opacity="0.060"/>
<polygon points="1065.0,704.7 1050.0,730.7 1020.0,730.7 1005.0,704.7 1020.0,678.7 1050.0,678.7" fill="none" stroke="#ffffff" stroke-width="0.8" opacity="0.068"/>
<polygon points="1110.0,678.6 1095.0,704.6 1065.0,704.6 1050.0,678.6 1065.0,652.6 1095.0,652.6" fill="none" stroke="#ffffff" stroke-width="0.8" opacity="0.077"/>
<polygon points="1155.0,704.7 1140.0,730.7 1110.0,730.7 1095.0,704.7 1110.0,678.7 1140.0,678.7" fill="none" stroke="#ffffff" stroke-width="0.8" opacity="0.085"/>
<polygon points="1200.0,678.6 1185.0,704.6 1155.0,704.6 1140.0,678.6 1155.0,652.6 1185.0,652.6" fill="none" stroke="#ffffff" stroke-width="0.8" opacity="0.093"/>
<polygon points="1245.0,704.7 1230.0,730.7 1200.0,730.7 1185.0,704.7 1200.0,678.7 1230.0,678.7" fill="none" stroke="#ffffff" stroke-width="0.8" opacity="0.102"/>
<polygon points="1290.0,678.6 1275.0,704.6 1245.0,704.6 1230.0,678.6 1245.0,652.6 1275.0,652.6" fill="none" stroke="#ffffff" stroke-width="0.8" opacity="0.110"/>
<polygon points="1335.0,704.7 1320.0,730.7 1290.0,730.7 1275.0,704.7 1290.0,678.7 1320.0,678.7" fill="none" stroke="#ffffff" stroke-width="0.8" opacity="0.119"/>
<polygon points="1380.0,678.6 1365.0,704.6 1335.0,704.6 1320.0,678.6 1335.0,652.6 1365.0,652.6" fill="none" stroke="#ffffff" stroke-width="0.8" opacity="0.127"/>
<polygon points="1425.0,704.7 1410.0,730.7 1380.0,730.7 1365.0,704.7 1380.0,678.7 1410.0,678.7" fill="none" stroke="#ffffff" stroke-width="0.8" opacity="0.136"/>
<polygon points="1470.0,678.6 1455.0,704.6 1425.0,704.6 1410.0,678.6 1425.0,652.6 1455.0,652.6" fill="none" stroke="#ffffff" stroke-width="0.8" opacity="0.144"/>
<polygon points="1515.0,704.7 1500.0,730.7 1470.0,730.7 1455.0,704.7 1470.0,678.7 1500.0,678.7" fill="none" stroke="#ffffff" stroke-width="0.8" opacity="0.152"/>
<polygon points="1560.0,678.6 1545.0,704.6 1515.0,704.6 1500.0,678.6 1515.0,652.6 1545.0,652.6" fill="none" stroke="#ffffff" stroke-width="0.8" opacity="0.160"/>
<polygon points="1605.0,704.7 1590.0,730.7 1560.0,730.7 1545.0,704.7 1560.0,678.7 1590.0,678.7" fill="none" stroke="#ffffff" stroke-width="0.8" opacity="0.160"/>
<polygon points="1650.0,678.6 1635.0,704.6 1605.0,704.6 1590.0,678.6 1605.0,652.6 1635.0,652.6" fill="none" stroke="#ffffff" stroke-width="0.8" opacity="0.160"/>
<polygon points="705.0,756.9 690.0,782.9 660.0,782.9 645.0,756.9 660.0,730.9 690.0,730.9" fill="none" stroke="#ffffff" stroke-width="0.8" opacity="0.001"/>
<polygon points="750.0,730.8 735.0,756.8 705.0,756.8 690.0,730.8 705.0,704.8 735.0,704.8" fill="none" stroke="#ffffff" stroke-width="0.8" opacity="0.009"/>
<polygon points="795.0,756.9 780.0,782.9 750.0,782.9 735.0,756.9 750.0,730.9 780.0,730.9" fill="none" stroke="#ffffff" stroke-width="0.8" opacity="0.017"/>
<polygon points="840.0,730.8 825.0,756.8 795.0,756.8 780.0,730.8 795.0,704.8 825.0,704.8" fill="none" stroke="#ffffff" stroke-width="0.8" opacity="0.026"/>
<polygon points="885.0,756.9 870.0,782.9 840.0,782.9 825.0,756.9 840.0,730.9 870.0,730.9" fill="none" stroke="#ffffff" stroke-width="0.8" opacity="0.034"/>
<polygon points="930.0,730.8 915.0,756.8 885.0,756.8 870.0,730.8 885.0,704.8 915.0,704.8" fill="none" stroke="#ffffff" stroke-width="0.8" opacity="0.043"/>
<polygon points="975.0,756.9 960.0,782.9 930.0,782.9 915.0,756.9 930.0,730.9 960.0,730.9" fill="none" stroke="#ffffff" stroke-width="0.8" opacity="0.051"/>
<polygon points="1020.0,730.8 1005.0,756.8 975.0,756.8 960.0,730.8 975.0,704.8 1005.0,704.8" fill="none" stroke="#ffffff" stroke-width="0.8" opacity="0.060"/>
<polygon points="1065.0,756.9 1050.0,782.9 1020.0,782.9 1005.0,756.9 1020.0,730.9 1050.0,730.9" fill="none" stroke="#ffffff" stroke-width="0.8" opacity="0.068"/>
<polygon points="1110.0,730.8 1095.0,756.8 1065.0,756.8 1050.0,730.8 1065.0,704.8 1095.0,704.8" fill="none" stroke="#ffffff" stroke-width="0.8" opacity="0.077"/>
<polygon points="1155.0,756.9 1140.0,782.9 1110.0,782.9 1095.0,756.9 1110.0,730.9 1140.0,730.9" fill="none" stroke="#ffffff" stroke-width="0.8" opacity="0.085"/>
<polygon points="1200.0,730.8 1185.0,756.8 1155.0,756.8 1140.0,730.8 1155.0,704.8 1185.0,704.8" fill="none" stroke="#ffffff" stroke-width="0.8" opacity="0.093"/>
<polygon points="1245.0,756.9 1230.0,782.9 1200.0,782.9 1185.0,756.9 1200.0,730.9 1230.0,730.9" fill="none" stroke="#ffffff" stroke-width="0.8" opacity="0.102"/>
<polygon points="1290.0,730.8 1275.0,756.8 1245.0,756.8 1230.0,730.8 1245.0,704.8 1275.0,704.8" fill="none" stroke="#ffffff" stroke-width="0.8" opacity="0.110"/>
<polygon points="1335.0,756.9 1320.0,782.9 1290.0,782.9 1275.0,756.9 1290.0,730.9 1320.0,730.9" fill="none" stroke="#ffffff" stroke-width="0.8" opacity="0.119"/>
<polygon points="1380.0,730.8 1365.0,756.8 1335.0,756.8 1320.0,730.8 1335.0,704.8 1365.0,704.8" fill="none" stroke="#ffffff" stroke-width="0.8" opacity="0.127"/>
<polygon points="1425.0,756.9 1410.0,782.9 1380.0,782.9 1365.0,756.9 1380.0,730.9 1410.0,730.9" fill="none" stroke="#ffffff" stroke-width="0.8" opacity="0.136"/>
<polygon points="1470.0,730.8 1455.0,756.8 1425.0,756.8 1410.0,730.8 1425.0,704.8 1455.0,704.8" fill="none" stroke="#ffffff" stroke-width="0.8" opacity="0.144"/>
<polygon points="1515.0,756.9 1500.0,782.9 1470.0,782.9 1455.0,756.9 1470.0,730.9 1500.0,730.9" fill="none" stroke="#ffffff" stroke-width="0.8" opacity="0.152"/>
<polygon points="1560.0,730.8 1545.0,756.8 1515.0,756.8 1500.0,730.8 1515.0,704.8 1545.0,704.8" fill="none" stroke="#ffffff" stroke-width="0.8" opacity="0.160"/>
<polygon points="1605.0,756.9 1590.0,782.9 1560.0,782.9 1545.0,756.9 1560.0,730.9 1590.0,730.9" fill="none" stroke="#ffffff" stroke-width="0.8" opacity="0.160"/>
<polygon points="1650.0,730.8 1635.0,756.8 1605.0,756.8 1590.0,730.8 1605.0,704.8 1635.0,704.8" fill="none" stroke="#ffffff" stroke-width="0.8" opacity="0.160"/>
<polygon points="705.0,809.1 690.0,835.1 660.0,835.1 645.0,809.1 660.0,783.1 690.0,783.1" fill="none" stroke="#ffffff" stroke-width="0.8" opacity="0.001"/>
<polygon points="750.0,783.0 735.0,809.0 705.0,809.0 690.0,783.0 705.0,757.0 735.0,757.0" fill="none" stroke="#ffffff" stroke-width="0.8" opacity="0.009"/>
<polygon points="795.0,809.1 780.0,835.1 750.0,835.1 735.0,809.1 750.0,783.1 780.0,783.1" fill="none" stroke="#ffffff" stroke-width="0.8" opacity="0.017"/>
<polygon points="840.0,783.0 825.0,809.0 795.0,809.0 780.0,783.0 795.0,757.0 825.0,757.0" fill="none" stroke="#ffffff" stroke-width="0.8" opacity="0.026"/>
<polygon points="885.0,809.1 870.0,835.1 840.0,835.1 825.0,809.1 840.0,783.1 870.0,783.1" fill="none" stroke="#ffffff" stroke-width="0.8" opacity="0.034"/>
<polygon points="930.0,783.0 915.0,809.0 885.0,809.0 870.0,783.0 885.0,757.0 915.0,757.0" fill="none" stroke="#ffffff" stroke-width="0.8" opacity="0.043"/>
<polygon points="975.0,809.1 960.0,835.1 930.0,835.1 915.0,809.1 930.0,783.1 960.0,783.1" fill="none" stroke="#ffffff" stroke-width="0.8" opacity="0.051"/>
<polygon points="1020.0,783.0 1005.0,809.0 975.0,809.0 960.0,783.0 975.0,757.0 1005.0,757.0" fill="none" stroke="#ffffff" stroke-width="0.8" opacity="0.060"/>
<polygon points="1065.0,809.1 1050.0,835.1 1020.0,835.1 1005.0,809.1 1020.0,783.1 1050.0,783.1" fill="none" stroke="#ffffff" stroke-width="0.8" opacity="0.068"/>
<polygon points="1110.0,783.0 1095.0,809.0 1065.0,809.0 1050.0,783.0 1065.0,757.0 1095.0,757.0" fill="none" stroke="#ffffff" stroke-width="0.8" opacity="0.077"/>
<polygon points="1155.0,809.1 1140.0,835.1 1110.0,835.1 1095.0,809.1 1110.0,783.1 1140.0,783.1" fill="none" stroke="#ffffff" stroke-width="0.8" opacity="0.085"/>
<polygon points="1200.0,783.0 1185.0,809.0 1155.0,809.0 1140.0,783.0 1155.0,757.0 1185.0,757.0" fill="none" stroke="#ffffff" stroke-width="0.8" opacity="0.093"/>
<polygon points="1245.0,809.1 1230.0,835.1 1200.0,835.1 1185.0,809.1 1200.0,783.1 1230.0,783.1" fill="none" stroke="#ffffff" stroke-width="0.8" opacity="0.102"/>
<polygon points="1290.0,783.0 1275.0,809.0 1245.0,809.0 1230.0,783.0 1245.0,757.0 1275.0,757.0" fill="none" stroke="#ffffff" stroke-width="0.8" opacity="0.110"/>
<polygon points="1335.0,809.1 1320.0,835.1 1290.0,835.1 1275.0,809.1 1290.0,783.1 1320.0,783.1" fill="none" stroke="#ffffff" stroke-width="0.8" opacity="0.119"/>
<polygon points="1380.0,783.0 1365.0,809.0 1335.0,809.0 1320.0,783.0 1335.0,757.0 1365.0,757.0" fill="none" stroke="#ffffff" stroke-width="0.8" opacity="0.127"/>
<polygon points="1425.0,809.1 1410.0,835.1 1380.0,835.1 1365.0,809.1 1380.0,783.1 1410.0,783.1" fill="none" stroke="#ffffff" stroke-width="0.8" opacity="0.136"/>
<polygon points="1470.0,783.0 1455.0,809.0 1425.0,809.0 1410.0,783.0 1425.0,757.0 1455.0,757.0" fill="none" stroke="#ffffff" stroke-width="0.8" opacity="0.144"/>
<polygon points="1515.0,809.1 1500.0,835.1 1470.0,835.1 1455.0,809.1 1470.0,783.1 1500.0,783.1" fill="none" stroke="#ffffff" stroke-width="0.8" opacity="0.152"/>
<polygon points="1560.0,783.0 1545.0,809.0 1515.0,809.0 1500.0,783.0 1515.0,757.0 1545.0,757.0" fill="none" stroke="#ffffff" stroke-width="0.8" opacity="0.160"/>
<polygon points="1605.0,809.1 1590.0,835.1 1560.0,835.1 1545.0,809.1 1560.0,783.1 1590.0,783.1" fill="none" stroke="#ffffff" stroke-width="0.8" opacity="0.160"/>
<polygon points="1650.0,783.0 1635.0,809.0 1605.0,809.0 1590.0,783.0 1605.0,757.0 1635.0,757.0" fill="none" stroke="#ffffff" stroke-width="0.8" opacity="0.160"/>
<polygon points="705.0,861.3 690.0,887.3 660.0,887.3 645.0,861.3 660.0,835.3 690.0,835.3" fill="none" stroke="#ffffff" stroke-width="0.8" opacity="0.001"/>
<polygon points="750.0,835.2 735.0,861.2 705.0,861.2 690.0,835.2 705.0,809.2 735.0,809.2" fill="none" stroke="#ffffff" stroke-width="0.8" opacity="0.009"/>
<polygon points="795.0,861.3 780.0,887.3 750.0,887.3 735.0,861.3 750.0,835.3 780.0,835.3" fill="none" stroke="#ffffff" stroke-width="0.8" opacity="0.017"/>
<polygon points="840.0,835.2 825.0,861.2 795.0,861.2 780.0,835.2 795.0,809.2 825.0,809.2" fill="none" stroke="#ffffff" stroke-width="0.8" opacity="0.026"/>
<polygon points="885.0,861.3 870.0,887.3 840.0,887.3 825.0,861.3 840.0,835.3 870.0,835.3" fill="none" stroke="#ffffff" stroke-width="0.8" opacity="0.034"/>
<polygon points="930.0,835.2 915.0,861.2 885.0,861.2 870.0,835.2 885.0,809.2 915.0,809.2" fill="none" stroke="#ffffff" stroke-width="0.8" opacity="0.043"/>
<polygon points="975.0,861.3 960.0,887.3 930.0,887.3 915.0,861.3 930.0,835.3 960.0,835.3" fill="none" stroke="#ffffff" stroke-width="0.8" opacity="0.051"/>
<polygon points="1020.0,835.2 1005.0,861.2 975.0,861.2 960.0,835.2 975.0,809.2 1005.0,809.2" fill="none" stroke="#ffffff" stroke-width="0.8" opacity="0.060"/>
<polygon points="1065.0,861.3 1050.0,887.3 1020.0,887.3 1005.0,861.3 1020.0,835.3 1050.0,835.3" fill="none" stroke="#ffffff" stroke-width="0.8" opacity="0.068"/>
<polygon points="1110.0,835.2 1095.0,861.2 1065.0,861.2 1050.0,835.2 1065.0,809.2 1095.0,809.2" fill="none" stroke="#ffffff" stroke-width="0.8" opacity="0.077"/>
<polygon points="1155.0,861.3 1140.0,887.3 1110.0,887.3 1095.0,861.3 1110.0,835.3 1140.0,835.3" fill="none" stroke="#ffffff" stroke-width="0.8" opacity="0.085"/>
<polygon points="1200.0,835.2 1185.0,861.2 1155.0,861.2 1140.0,835.2 1155.0,809.2 1185.0,809.2" fill="none" stroke="#ffffff" stroke-width="0.8" opacity="0.093"/>
<polygon points="1245.0,861.3 1230.0,887.3 1200.0,887.3 1185.0,861.3 1200.0,835.3 1230.0,835.3" fill="none" stroke="#ffffff" stroke-width="0.8" opacity="0.102"/>
<polygon points="1290.0,835.2 1275.0,861.2 1245.0,861.2 1230.0,835.2 1245.0,809.2 1275.0,809.2" fill="none" stroke="#ffffff" stroke-width="0.8" opacity="0.110"/>
<polygon points="1335.0,861.3 1320.0,887.3 1290.0,887.3 1275.0,861.3 1290.0,835.3 1320.0,835.3" fill="none" stroke="#ffffff" stroke-width="0.8" opacity="0.119"/>
<polygon points="1380.0,835.2 1365.0,861.2 1335.0,861.2 1320.0,835.2 1335.0,809.2 1365.0,809.2" fill="none" stroke="#ffffff" stroke-width="0.8" opacity="0.127"/>
<polygon points="1425.0,861.3 1410.0,887.3 1380.0,887.3 1365.0,861.3 1380.0,835.3 1410.0,835.3" fill="none" stroke="#ffffff" stroke-width="0.8" opacity="0.136"/>
<polygon points="1470.0,835.2 1455.0,861.2 1425.0,861.2 1410.0,835.2 1425.0,809.2 1455.0,809.2" fill="none" stroke="#ffffff" stroke-width="0.8" opacity="0.144"/>
<polygon points="1515.0,861.3 1500.0,887.3 1470.0,887.3 1455.0,861.3 1470.0,835.3 1500.0,835.3" fill="none" stroke="#ffffff" stroke-width="0.8" opacity="0.152"/>
<polygon points="1560.0,835.2 1545.0,861.2 1515.0,861.2 1500.0,835.2 1515.0,809.2 1545.0,809.2" fill="none" stroke="#ffffff" stroke-width="0.8" opacity="0.160"/>
<polygon points="1605.0,861.3 1590.0,887.3 1560.0,887.3 1545.0,861.3 1560.0,835.3 1590.0,835.3" fill="none" stroke="#ffffff" stroke-width="0.8" opacity="0.160"/>
<polygon points="1650.0,835.2 1635.0,861.2 1605.0,861.2 1590.0,835.2 1605.0,809.2 1635.0,809.2" fill="none" stroke="#ffffff" stroke-width="0.8" opacity="0.160"/>
<circle cx="120" cy="380" r="220" fill="#34d399" opacity="0.07"/>
<circle cx="1500" cy="40" r="200" fill="#a78bfa" opacity="0.10"/>
  <path d="M 1215 48 A 152 152 0 0 0 1215 352" fill="none" stroke="#34d399" stroke-width="5.0" stroke-linecap="round" opacity="0.95"/>
  <path d="M 1215 48 A 152 152 0 0 1 1215 352" fill="none" stroke="#22d3ee" stroke-width="3.8" stroke-linecap="round" stroke-dasharray="9 7" opacity="0.9"/>
  <circle cx="1215.0" cy="361.4" r="3.2" fill="#34d399" opacity="0.75"/>
  <circle cx="1179.1" cy="357.4" r="3.2" fill="#34d399" opacity="0.75"/>
  <circle cx="1144.9" cy="345.5" r="3.2" fill="#34d399" opacity="0.75"/>
  <circle cx="1114.3" cy="326.2" r="3.2" fill="#34d399" opacity="0.75"/>
  <circle cx="1088.8" cy="300.7" r="3.2" fill="#34d399" opacity="0.75"/>
  <circle cx="1069.5" cy="270.1" r="3.2" fill="#34d399" opacity="0.75"/>
  <circle cx="1057.6" cy="235.9" r="3.2" fill="#34d399" opacity="0.75"/>
  <circle cx="1053.5" cy="200.0" r="3.2" fill="#34d399" opacity="0.75"/>
  <circle cx="1057.6" cy="164.1" r="3.2" fill="#34d399" opacity="0.75"/>
  <circle cx="1069.5" cy="129.9" r="3.2" fill="#34d399" opacity="0.75"/>
  <circle cx="1088.8" cy="99.3" r="3.2" fill="#34d399" opacity="0.75"/>
  <circle cx="1114.3" cy="73.8" r="3.2" fill="#34d399" opacity="0.75"/>
  <circle cx="1144.9" cy="54.5" r="3.2" fill="#34d399" opacity="0.75"/>
  <circle cx="1179.1" cy="42.6" r="3.2" fill="#34d399" opacity="0.75"/>
  <circle cx="1215.0" cy="38.6" r="3.2" fill="#34d399" opacity="0.75"/>
  <circle cx="1215" cy="200" r="147.8" fill="#ffffff" opacity="0.05"/>
  <polyline points="1158.8,116.4 1166.8,119.2 1174.7,122.0 1182.0,124.8 1188.6,127.5 1194.2,130.3 1198.7,133.1 1202.0,135.9 1203.9,138.7 1204.3,141.5 1203.4,144.3 1201.0,147.1 1197.3,149.8 1192.3,152.6 1186.3,155.4 1179.5,158.2 1171.9,161.0 1164.0,163.8 1155.9,166.6 1147.9,169.3 1140.2,172.1 1133.1,174.9 1126.9,177.7 1121.6,180.5 1117.5,183.3 1114.7,186.1 1113.3,188.9 1113.4,191.6 1114.8,194.4 1117.7,197.2 1121.9,200.0 1127.2,202.8 1133.5,205.6 1140.7,208.4 1148.3,211.1 1156.4,213.9 1164.5,216.7 1172.4,219.5 1179.9,222.3 1186.7,225.1 1192.6,227.9 1197.5,230.7 1201.2,233.4 1203.5,236.2 1204.3,239.0 1203.8,241.8 1201.8,244.6 1198.5,247.4 1193.9,250.2 1188.2,252.9 1181.6,255.7 1174.2,258.5 1166.4,261.3 1158.3,264.1 1150.2,266.9 1142.4,269.7 1135.1,272.5 1128.6,275.2 1123.0,278.0 1118.6,280.8 1115.4,283.6" fill="none" stroke="#34d399" stroke-width="3.2" stroke-linecap="round" opacity="0.9"/>
  <polyline points="1158.8,116.4 1150.7,119.2 1142.9,122.0 1135.5,124.8 1129.0,127.5 1123.3,130.3 1118.8,133.1 1115.5,135.9 1113.6,138.7 1113.2,141.5 1114.2,144.3 1116.5,147.1 1120.3,149.8 1125.2,152.6 1131.2,155.4 1138.1,158.2 1145.6,161.0 1153.5,163.8 1161.6,166.6 1169.6,169.3 1177.3,172.1 1184.4,174.9 1190.7,177.7 1195.9,180.5 1200.0,183.3 1202.8,186.1 1204.2,188.9 1204.2,191.6 1202.7,194.4 1199.8,197.2 1195.7,200.0 1190.3,202.8 1184.0,205.6 1176.9,208.4 1169.2,211.1 1161.1,213.9 1153.0,216.7 1145.1,219.5 1137.6,222.3 1130.8,225.1 1124.9,227.9 1120.0,230.7 1116.4,233.4 1114.1,236.2 1113.2,239.0 1113.7,241.8 1115.7,244.6 1119.0,247.4 1123.6,250.2 1129.3,252.9 1136.0,255.7 1143.3,258.5 1151.2,261.3 1159.2,264.1 1167.3,266.9 1175.1,269.7 1182.4,272.5 1188.9,275.2 1194.5,278.0 1198.9,280.8 1202.1,283.6" fill="none" stroke="#a7f3d0" stroke-width="3.2" stroke-linecap="round" opacity="0.9"/>
  <line x1="1184.3" y1="125.7" x2="1133.3" y2="125.7" stroke="#ffffff" stroke-width="1.9" opacity="0.45"/>
  <line x1="1203.4" y1="144.3" x2="1114.2" y2="144.3" stroke="#ffffff" stroke-width="1.9" opacity="0.45"/>
  <line x1="1166.7" y1="162.8" x2="1150.8" y2="162.8" stroke="#ffffff" stroke-width="1.9" opacity="0.45"/>
  <line x1="1120.1" y1="181.4" x2="1197.4" y2="181.4" stroke="#ffffff" stroke-width="1.9" opacity="0.45"/>
  <line x1="1121.9" y1="200.0" x2="1195.7" y2="200.0" stroke="#ffffff" stroke-width="1.9" opacity="0.45"/>
  <line x1="1169.8" y1="218.6" x2="1147.7" y2="218.6" stroke="#ffffff" stroke-width="1.9" opacity="0.45"/>
  <line x1="1203.9" y1="237.2" x2="1113.6" y2="237.2" stroke="#ffffff" stroke-width="1.9" opacity="0.45"/>
  <line x1="1181.6" y1="255.7" x2="1136.0" y2="255.7" stroke="#ffffff" stroke-width="1.9" opacity="0.45"/>
  <line x1="1130.7" y1="274.3" x2="1186.8" y2="274.3" stroke="#ffffff" stroke-width="1.9" opacity="0.45"/>
  <line x1="1260.6" y1="111.8" x2="1309.2" y2="145.3" stroke="#22d3ee" stroke-width="1.6" opacity="0.55"/>
  <line x1="1260.6" y1="111.8" x2="1245.4" y2="169.6" stroke="#22d3ee" stroke-width="1.6" opacity="0.55"/>
  <line x1="1260.6" y1="111.8" x2="1281.9" y2="99.7" stroke="#22d3ee" stroke-width="1.6" opacity="0.55"/>
  <line x1="1309.2" y1="145.3" x2="1245.4" y2="169.6" stroke="#22d3ee" stroke-width="1.6" opacity="0.55"/>
  <line x1="1309.2" y1="145.3" x2="1294.0" y2="197.0" stroke="#22d3ee" stroke-width="1.6" opacity="0.55"/>
  <line x1="1309.2" y1="145.3" x2="1327.5" y2="203.0" stroke="#22d3ee" stroke-width="1.6" opacity="0.55"/>
  <line x1="1309.2" y1="145.3" x2="1281.9" y2="99.7" stroke="#22d3ee" stroke-width="1.6" opacity="0.55"/>
  <line x1="1245.4" y1="169.6" x2="1294.0" y2="197.0" stroke="#22d3ee" stroke-width="1.6" opacity="0.55"/>
  <line x1="1245.4" y1="169.6" x2="1257.6" y2="233.4" stroke="#22d3ee" stroke-width="1.6" opacity="0.55"/>
  <line x1="1294.0" y1="197.0" x2="1257.6" y2="233.4" stroke="#22d3ee" stroke-width="1.6" opacity="0.55"/>
  <line x1="1294.0" y1="197.0" x2="1312.3" y2="245.6" stroke="#22d3ee" stroke-width="1.6" opacity="0.55"/>
  <line x1="1294.0" y1="197.0" x2="1327.5" y2="203.0" stroke="#22d3ee" stroke-width="1.6" opacity="0.55"/>
  <line x1="1257.6" y1="233.4" x2="1312.3" y2="245.6" stroke="#22d3ee" stroke-width="1.6" opacity="0.55"/>
  <line x1="1257.6" y1="233.4" x2="1248.4" y2="279.0" stroke="#22d3ee" stroke-width="1.6" opacity="0.55"/>
  <line x1="1257.6" y1="233.4" x2="1281.9" y2="291.2" stroke="#22d3ee" stroke-width="1.6" opacity="0.55"/>
  <line x1="1312.3" y1="245.6" x2="1281.9" y2="291.2" stroke="#22d3ee" stroke-width="1.6" opacity="0.55"/>
  <line x1="1312.3" y1="245.6" x2="1327.5" y2="203.0" stroke="#22d3ee" stroke-width="1.6" opacity="0.55"/>
  <line x1="1248.4" y1="279.0" x2="1281.9" y2="291.2" stroke="#22d3ee" stroke-width="1.6" opacity="0.55"/>
  <circle cx="1260.6" cy="111.8" r="5.5" fill="#a78bfa" opacity="0.98"/>
  <circle cx="1260.6" cy="111.8" r="10.5" fill="none" stroke="#a78bfa" stroke-width="1.1" opacity="0.40"/>
  <circle cx="1309.2" cy="145.3" r="5.5" fill="#22d3ee" opacity="0.98"/>
  <circle cx="1309.2" cy="145.3" r="10.5" fill="none" stroke="#22d3ee" stroke-width="1.1" opacity="0.40"/>
  <circle cx="1245.4" cy="169.6" r="5.5" fill="#22d3ee" opacity="0.98"/>
  <circle cx="1245.4" cy="169.6" r="10.5" fill="none" stroke="#22d3ee" stroke-width="1.1" opacity="0.40"/>
  <circle cx="1294.0" cy="197.0" r="5.5" fill="#a78bfa" opacity="0.98"/>
  <circle cx="1294.0" cy="197.0" r="10.5" fill="none" stroke="#a78bfa" stroke-width="1.1" opacity="0.40"/>
  <circle cx="1257.6" cy="233.4" r="5.5" fill="#22d3ee" opacity="0.98"/>
  <circle cx="1257.6" cy="233.4" r="10.5" fill="none" stroke="#22d3ee" stroke-width="1.1" opacity="0.40"/>
  <circle cx="1312.3" cy="245.6" r="5.5" fill="#22d3ee" opacity="0.98"/>
  <circle cx="1312.3" cy="245.6" r="10.5" fill="none" stroke="#22d3ee" stroke-width="1.1" opacity="0.40"/>
  <circle cx="1248.4" cy="279.0" r="5.5" fill="#a78bfa" opacity="0.98"/>
  <circle cx="1248.4" cy="279.0" r="10.5" fill="none" stroke="#a78bfa" stroke-width="1.1" opacity="0.40"/>
  <circle cx="1281.9" cy="291.2" r="5.5" fill="#22d3ee" opacity="0.98"/>
  <circle cx="1281.9" cy="291.2" r="10.5" fill="none" stroke="#22d3ee" stroke-width="1.1" opacity="0.40"/>
  <circle cx="1327.5" cy="203.0" r="5.5" fill="#22d3ee" opacity="0.98"/>
  <circle cx="1327.5" cy="203.0" r="10.5" fill="none" stroke="#22d3ee" stroke-width="1.1" opacity="0.40"/>
  <circle cx="1281.9" cy="99.7" r="5.5" fill="#a78bfa" opacity="0.98"/>
  <circle cx="1281.9" cy="99.7" r="10.5" fill="none" stroke="#a78bfa" stroke-width="1.1" opacity="0.40"/>
  <rect x="1345.7" y="148.6" width="11.6" height="11.6" rx="2.5" fill="#22d3ee" opacity="0.80"/>
  <rect x="1363.6" y="222.0" width="10.8" height="10.8" rx="2.4" fill="#a78bfa" opacity="0.72"/>
  <rect x="1381.4" y="176.8" width="10.0" height="10.0" rx="2.2" fill="#22d3ee" opacity="0.64"/>
  <rect x="1399.3" y="259.2" width="9.2" height="9.2" rx="2.0" fill="#a78bfa" opacity="0.56"/>
  <rect x="1417.1" y="192.8" width="8.4" height="8.4" rx="1.8" fill="#22d3ee" opacity="0.48"/>
  <rect x="1435.0" y="241.8" width="7.6" height="7.6" rx="1.7" fill="#a78bfa" opacity="0.40"/>
  <rect x="1452.8" y="160.1" width="6.8" height="6.8" rx="1.5" fill="#22d3ee" opacity="0.32"/>
  <rect x="1470.7" y="212.2" width="6.0" height="6.0" rx="1.3" fill="#a78bfa" opacity="0.24"/>
  <rect x="1488.5" y="252.1" width="5.2" height="5.2" rx="1.2" fill="#22d3ee" opacity="0.16"/>
<text x="90" y="150" font-family="Helvetica,Arial,sans-serif" font-size="76" font-weight="bold" fill="#ffffff" letter-spacing="2">CASB<tspan fill="#34d399">-</tspan>NAU</text>
<rect x="92" y="176" width="150" height="4" rx="2" fill="url(#rule)"/>
<text x="92" y="222" font-family="Helvetica,Arial,sans-serif" font-size="25" fill="#d1fae5">Center of Agricultural Synthetic Biology</text>
<text x="92" y="256" font-family="Helvetica,Arial,sans-serif" font-size="21" fill="#99f6e4" opacity="0.9">Nanjing Agricultural University</text>
<text x="92" y="316" font-family="Helvetica,Arial,sans-serif" font-size="26" font-weight="bold" fill="#ffffff">Virtual Cell <tspan fill="#22d3ee">&#215;</tspan> Digital Cell</text>
<text x="92" y="348" font-family="Helvetica,Arial,sans-serif" font-size="19" fill="#a5b4fc">Modelling life, from genotype to phenotype.</text>
</svg>